<svg xmlns="http://www.w3.org/2000/svg" xmlns:xlink="http://www.w3.org/1999/xlink" viewBox="0 0 230 230">
  <defs>
    <style>
      .cls-1 {
        fill: #fff;
      }

      .cls-2 {
        fill: #f4f4f4;
      }

      .cls-3 {
        fill: #f7f8fb;
      }

      .cls-4 {
        fill: #37beb7;
      }

      .cls-5 {
        fill: #fbc316;
      }

      .cls-6 {
        fill: #000078;
      }

      .cls-7 {
        filter: url(#Rectangle_50);
      }
    </style>
    <filter id="Rectangle_50" x="0" y="0" width="230" height="230" filterUnits="userSpaceOnUse">
      <feOffset dy="4" input="SourceAlpha"/>
      <feGaussianBlur stdDeviation="5" result="blur"/>
      <feFlood flood-opacity="0.102"/>
      <feComposite operator="in" in2="blur"/>
      <feComposite in="SourceGraphic"/>
    </filter>
  </defs>
  <g id="Group_48" data-name="Group 48" transform="translate(-151 -682)">
    <g id="Group_188" data-name="Group 188" transform="translate(-986.165 -1765.817)">
      <g id="Group_179" data-name="Group 179" transform="translate(1207.521 2504.664)">
        <g id="Group_178" data-name="Group 178" transform="translate(0 0)">
          <path id="Path_729" data-name="Path 729" class="cls-2" d="M1297.17,2618.118c-6.249-6.249-12.5-12.457-18.788-18.706-1.862-1.863-3.766-3.725-5.628-5.587a2.169,2.169,0,0,0-3.518,0l-7.449,7.449a2.132,2.132,0,0,0,0,3.435l1.531,1.531a3.41,3.41,0,0,0-.414.455c-1.986,1.987-3.683,1.987-5.669-.041a17.031,17.031,0,0,0-1.531-1.448,6.66,6.66,0,0,0-7.532-.952,18.291,18.291,0,0,0-2.193,1.448c-.372-.331-.786-.7-1.159-1.076.7-1.573.579-2.111-.621-3.353l-7.16-7.159c-1.324-1.324-2.359-1.324-3.642,0-5.339,5.421-10.719,10.884-16.057,16.347-2.649,2.69-5.3,5.38-7.9,8.07a2.077,2.077,0,0,0,0,3.311l7.615,7.615a2.207,2.207,0,0,0,2.318.662.891.891,0,0,1,.7.207c2.152,2.069,4.3,4.138,6.663,6.414-.786.7-1.531,1.324-2.235,1.987a5.526,5.526,0,0,0-.372,7.408,6.185,6.185,0,0,0,4.3,2.607,2146.877,2146.877,0,0,0,11.174,11.132c.041.124.083.29.124.414a6.365,6.365,0,0,0,4.428,4.842,5.417,5.417,0,0,0,5.918-1.7c.621-.662,1.242-1.283,1.9-1.945,1.2,1.2,2.318,2.359,3.435,3.476a5.478,5.478,0,0,0,4.3,1.738,6.577,6.577,0,0,0,5.794-4.925c.083-.414.248-.579.7-.7a6.478,6.478,0,0,0,4.8-4.925c.124-.414.331-.5.662-.621a9.793,9.793,0,0,0,2.607-1.366,5.67,5.67,0,0,0,2.359-4.056c.331-.083.621-.124.869-.207a6.517,6.517,0,0,0,4.511-4.511,5.458,5.458,0,0,0-1.7-5.711c-.7-.662-1.366-1.324-2.028-1.945,2.855-2.814,5.67-5.546,8.525-8.318,1.49.786,1.986.7,3.394-.7l7.035-7.035C1298.494,2620.477,1298.494,2619.442,1297.17,2618.118Zm-78.423,6.994c-1.7-1.7-3.311-3.353-5.049-5.049l21.4-21.768.993.993-20.651,21.023,4.056,4.056Zm3.89,1.986c6.415-6.5,12.788-12.995,19.2-19.533.372.331.7.621,1.035.952-6.083,6.208-12.167,12.374-18.292,18.582,1.945,1.9,3.89,3.724,5.835,5.628l-.166.166a8,8,0,0,0-.7.869Zm7.532,17.092a1.5,1.5,0,0,1-2.359-.083c-.993-.993-1.117-1.7-.331-2.483,3.021-3.062,6.042-6.083,9.1-9.1a1.292,1.292,0,0,1,1.986,0,11.09,11.09,0,0,1,1.2,1.49,5.1,5.1,0,0,1-.7,1.2C1236.169,2638.189,1233.189,2641.21,1230.168,2644.19Zm5.546,5.546c-.786.786-1.573.7-2.525-.249-.828-.869-.869-1.572-.083-2.4,2.938-2.938,5.877-5.918,8.815-8.856.5-.5,1.035-.869,1.738-.5a2.759,2.759,0,0,1,1.614,2.028,3.927,3.927,0,0,1-.579.952C1241.715,2643.735,1238.735,2646.756,1235.714,2649.736Zm5.5,5.628c-.786.745-1.573.621-2.524-.414a1.478,1.478,0,0,1-.083-2.235c2.276-2.317,4.552-4.594,6.87-6.911a1.492,1.492,0,0,1,1.738-.5,2.6,2.6,0,0,1,1.49,2.152,2.679,2.679,0,0,1-.455.786C1245.936,2650.646,1243.577,2653,1241.218,2655.364Zm10.387.745c-1.531,1.573-3.1,3.1-4.635,4.676a1.394,1.394,0,0,1-1.821.414,2.494,2.494,0,0,1-1.448-2.069,4.157,4.157,0,0,1,.538-.869c1.573-1.614,3.145-3.187,4.718-4.8.91-.91,1.614-.869,2.566.042C1252.433,2654.454,1252.474,2655.24,1251.605,2656.109Zm1.407-6.663c-.165-.124-.414-.456-.372-.579.952-2.856-.786-5.628-3.352-7.118a2.536,2.536,0,0,1-.248-.165,5.609,5.609,0,0,0-.786-5.215,6.421,6.421,0,0,0-4.552-2.855,6.347,6.347,0,0,0-2.442-4.221,5.42,5.42,0,0,0-2.69-1.283,5.631,5.631,0,0,1,4.676,1.283,6.19,6.19,0,0,1,2.442,4.221,6.507,6.507,0,0,1,4.552,2.855,5.728,5.728,0,0,1,.786,5.215,2.592,2.592,0,0,0,.248.165c2.566,1.49,4.3,4.263,3.352,7.118-.041.124.166.455.372.579a8.471,8.471,0,0,1,2.69,2.731,2.574,2.574,0,0,0-1.242,1.242,1.614,1.614,0,0,1-.165.207A7.368,7.368,0,0,0,1253.012,2649.446Zm-8.442-22.762a7.018,7.018,0,0,0,4.139-2.11c1.614-1.573,3.269-3.145,4.883-4.718.124-.124.248-.207.414-.372a3.318,3.318,0,0,1,.538.538,3.884,3.884,0,0,1,.414.414c-1.448,1.366-2.9,2.772-4.3,4.138a7.182,7.182,0,0,1-4.925,2.152,2.736,2.736,0,0,1-1.159-.042Zm13.7,35.425c-1.076-1.117-2.152-2.276-3.187-3.311.5-1.2.993-2.4,1.448-3.476.455.455.91.91,1.407,1.365l-.869,2.111c.993,1.076,2.11,2.193,3.186,3.311l.207.207c-.165.083-.29.207-.455.29A1.437,1.437,0,0,1,1258.268,2662.11Zm7.035-5.008a1.543,1.543,0,0,1-1.241-.373c-1.407-1.283-2.773-2.648-4.18-3.973a2.917,2.917,0,0,0-.579-.414,1.967,1.967,0,0,1,2.524.414c1.407,1.324,2.731,2.69,4.18,3.973l.041.042A1.249,1.249,0,0,1,1265.3,2657.1Zm3.931-6.125c-1.366-1.366-2.773-2.731-4.138-4.1a1.981,1.981,0,0,0-.621-.455,2.079,2.079,0,0,1,2.607.455c1.366,1.366,2.773,2.731,4.138,4.1a1.784,1.784,0,0,0,.29.248C1270.725,2651.846,1270.063,2651.763,1269.235,2650.977Zm7.242-4.966a1.5,1.5,0,0,1-1.614-.5l-4.966-4.966a3.285,3.285,0,0,0-.745-.579,2.384,2.384,0,0,1,.579-.207,2.279,2.279,0,0,1,2.152.786l4.966,4.966a1.085,1.085,0,0,0,.248.207,4.178,4.178,0,0,1-.621.29Zm-1.448-11.174c-1.076-1.159-2.193-2.4-3.393-3.6l-14.4-14.4a1.429,1.429,0,0,1-.414-.869,2.02,2.02,0,0,0-1.324-1.9,1.987,1.987,0,0,0-2.276.5c-1.283,1.241-2.607,2.483-3.89,3.724-1.2,1.159-2.4,2.318-3.642,3.476a2.765,2.765,0,0,1-4.138-.041,12.758,12.758,0,0,1-1.035-1.076,2.6,2.6,0,0,1,.124-3.476c2.855-2.9,5.711-5.794,8.608-8.649a2.66,2.66,0,0,1,3.724-.083c.579.5,1.117,1.076,1.655,1.614a7.347,7.347,0,0,0,10.553.166c.331-.331.7-.621,1.076-.993,5.711,5.794,11.422,11.588,17.05,17.3C1280.74,2629.126,1277.967,2631.9,1275.029,2634.837Zm12.871-9.891c-7.2-7.284-14.443-14.691-21.644-21.975,1.531-1.531,3.145-3.145,4.966-4.925l.993.993-4.18,4.18c6.87,6.994,13.781,14.029,20.651,20.982C1288.4,2624.45,1288.148,2624.7,1287.9,2624.946Z" transform="translate(-1208.612 -2557.14)"/>
          <path id="Path_730" data-name="Path 730" class="cls-2" d="M1275,2534.077c1.7.207,3.394.372,5.049.579a.659.659,0,0,1,.621.5c.662,1.614,1.324,3.187,1.986,4.8a1.179,1.179,0,0,0,1.448.828,2.1,2.1,0,0,0,1.035-.745l5.463-7.2a1.137,1.137,0,0,1,1.738,0c1.821,2.441,3.683,4.883,5.5,7.283a1.347,1.347,0,0,0,2.524-.331c.621-1.531,1.283-3.021,1.9-4.552a.758.758,0,0,1,.745-.538c1.738-.166,3.435-.372,5.173-.579a1.321,1.321,0,0,0,1.117-.952,1.474,1.474,0,0,0-.373-1.407c-1.738-2.276-3.476-4.594-5.214-6.87a.763.763,0,0,1-.124-.786,20.55,20.55,0,0,0,.786-3.435,13.018,13.018,0,1,0-25.162,3.352.871.871,0,0,1-.124.993l-5.09,6.828A1.326,1.326,0,0,0,1275,2534.077Zm16.471-25a10.606,10.606,0,0,1,6.125,1.986,10.848,10.848,0,0,0-5.38-1.531,10.357,10.357,0,0,0-6.166,18.706,10.329,10.329,0,0,1,5.421-19.161Z" transform="translate(-1246.737 -2506.455)"/>
        </g>
      </g>
      <g id="Group_187" data-name="Group 187" transform="translate(1206.75 2503.399)">
        <g id="Group_180" data-name="Group 180" transform="translate(16.119 50.282)">
          <path id="Path_731" data-name="Path 731" class="cls-3" d="M1279.221,2671.126a1.135,1.135,0,0,1,.166-.207,2.042,2.042,0,0,1,3.476-.662c1.407,1.324,2.731,2.69,4.18,3.973a1.706,1.706,0,0,0,1.241.373,1.871,1.871,0,0,0,.952-3.27c-1.366-1.365-2.731-2.731-4.056-4.1a2.063,2.063,0,0,1-.124-3.062,2.1,2.1,0,0,1,3.063.124c1.366,1.366,2.773,2.731,4.138,4.1.91.91,1.614.91,2.483.041,1.035-.993,1.035-1.7,0-2.731-1.655-1.7-3.352-3.352-5.007-5.049a1.926,1.926,0,0,1-.538-2.069,2.01,2.01,0,0,1,1.573-1.448,2.278,2.278,0,0,1,2.152.786l4.966,4.966a1.434,1.434,0,0,0,1.614.5,1.877,1.877,0,0,0,.786-3.311c-7.573-7.532-15.105-15.105-22.679-22.637a6.56,6.56,0,0,1-.538-.538,3.743,3.743,0,0,0-.414.373c-1.655,1.573-3.269,3.145-4.883,4.718a7.181,7.181,0,0,1-4.925,2.152c-3.518.166-7.035-3.393-7.656-5.959a9.151,9.151,0,0,1-.207-2.814,6.586,6.586,0,0,1,2.111-4.18l5.09-5.09c-.455-.414-.828-.786-1.283-1.2-6.414,6.539-12.788,13.036-19.2,19.533,2.318,2.235,4.594,4.387,6.911,6.663.29-.331.5-.621.7-.869,1.2-1.2,2.4-2.483,3.683-3.642a5.545,5.545,0,0,1,7.325,0,6.189,6.189,0,0,1,2.442,4.221,6.505,6.505,0,0,1,4.552,2.855,5.727,5.727,0,0,1,.786,5.214,2.583,2.583,0,0,0,.248.166c2.566,1.49,4.3,4.262,3.352,7.118-.041.124.166.455.372.579A8.769,8.769,0,0,1,1279.221,2671.126Z" transform="translate(-1245.7 -2624.9)"/>
          <path id="Path_732" data-name="Path 732" class="cls-3" d="M1323.9,2744.176c.993,1.076,2.11,2.194,3.186,3.311a1.452,1.452,0,0,0,1.738.5,2.275,2.275,0,0,0,1.449-1.821,1.449,1.449,0,0,0-.331-.91c-1.531-1.573-3.1-3.1-4.552-4.552C1324.893,2741.776,1324.4,2742.976,1323.9,2744.176Z" transform="translate(-1291.537 -2692.777)"/>
        </g>
        <g id="Group_181" data-name="Group 181" transform="translate(6.849 41.136)">
          <path id="Path_733" data-name="Path 733" class="cls-4" d="M1244.7,2603.5c-7.16,7.284-14.319,14.567-21.4,21.768,1.738,1.738,3.352,3.393,5.049,5.049l21.437-21.809C1248.048,2606.852,1246.392,2605.2,1244.7,2603.5Z" transform="translate(-1223.3 -2603.21)"/>
          <path id="Path_734" data-name="Path 734" class="cls-4" d="M1355.266,2602.8c-1.78,1.779-3.435,3.435-4.966,4.925,7.2,7.325,14.443,14.692,21.644,21.975,1.738-1.738,3.435-3.394,4.966-4.925C1369.709,2617.491,1362.467,2610.125,1355.266,2602.8Z" transform="translate(-1297.742 -2602.8)"/>
        </g>
        <path id="Path_735" data-name="Path 735" class="cls-5" d="M1301.982,2511a10.367,10.367,0,1,0,10.346,10.388A10.341,10.341,0,0,0,1301.982,2511Z" transform="translate(-1256.48 -2507.854)"/>
        <path id="Path_736" data-name="Path 736" class="cls-3" d="M1334.188,2557.776c-1.2-1.614-2.359-3.1-3.518-4.676a11.336,11.336,0,0,1-3.1,3.021c-1.2.745-2.525,1.365-3.766,2.028,1.159,1.531,2.318,3.1,3.559,4.718.538-1.283,1.076-2.524,1.573-3.766a1.41,1.41,0,0,1,1.076-.91c.29-.041.621-.083.91-.124C1331.994,2558.025,1333.029,2557.9,1334.188,2557.776Z" transform="translate(-1275.36 -2532.531)"/>
        <path id="Path_737" data-name="Path 737" class="cls-3" d="M1281.1,2557.952a2.693,2.693,0,0,0,.455.083c1.2.124,2.4.29,3.6.414a1.46,1.46,0,0,1,1.2.869,5.066,5.066,0,0,1,.29.7c.414.993.828,2.028,1.283,3.1,1.242-1.656,2.442-3.228,3.642-4.8-3.849-1.656-3.849-1.656-7.035-4.925C1283.335,2554.848,1282.259,2556.38,1281.1,2557.952Z" transform="translate(-1250.331 -2532.707)"/>
        <g id="Group_186" data-name="Group 186" transform="translate(0 0)">
          <g id="Group_185" data-name="Group 185">
            <g id="Group_184" data-name="Group 184" transform="translate(0 35.85)">
              <path id="Path_738" data-name="Path 738" class="cls-6" d="M1224.856,2633.841c-2.359-2.276-4.511-4.345-6.663-6.414a.891.891,0,0,0-.7-.207,2.229,2.229,0,0,1-2.318-.662c-2.524-2.566-5.09-5.091-7.615-7.615a2.1,2.1,0,0,1,0-3.311c2.649-2.69,5.256-5.38,7.9-8.07,5.339-5.463,10.719-10.884,16.057-16.347,1.283-1.324,2.359-1.324,3.642,0,2.4,2.359,4.759,4.759,7.16,7.159,1.242,1.242,1.324,1.78.621,3.353.372.372.786.745,1.159,1.076a14.374,14.374,0,0,1,2.193-1.448,6.723,6.723,0,0,1,7.532.952c.538.455,1.034.952,1.531,1.448,1.986,2.028,3.683,2.028,5.67.041a5,5,0,0,0,.414-.455c-.5-.5-1.035-.993-1.531-1.531-1.159-1.2-1.159-2.276,0-3.435l7.449-7.449c1.2-1.2,2.276-1.2,3.518,0,1.862,1.862,3.766,3.725,5.628,5.587,6.249,6.249,12.5,12.457,18.788,18.706,1.324,1.324,1.324,2.318,0,3.642l-7.035,7.035c-1.407,1.407-1.9,1.49-3.394.7-2.855,2.773-5.628,5.5-8.525,8.318.662.662,1.366,1.324,2.028,1.945a5.361,5.361,0,0,1,1.7,5.711,6.517,6.517,0,0,1-4.511,4.511c-.248.083-.538.124-.869.207a5.67,5.67,0,0,1-2.359,4.056,15.651,15.651,0,0,1-2.607,1.366c-.331.165-.538.207-.662.621a6.419,6.419,0,0,1-4.8,4.925.834.834,0,0,0-.7.7,6.475,6.475,0,0,1-5.794,4.925,5.48,5.48,0,0,1-4.3-1.738c-1.117-1.117-2.235-2.276-3.435-3.476-.662.662-1.283,1.324-1.9,1.945a5.489,5.489,0,0,1-5.918,1.7,6.43,6.43,0,0,1-4.428-4.842c-.041-.166-.083-.29-.124-.414a6.914,6.914,0,0,1-5.587-5.545,6.814,6.814,0,0,1-5.587-5.587,6.513,6.513,0,0,1-4.3-2.607,5.481,5.481,0,0,1,.372-7.408C1223.324,2635.166,1224.069,2634.544,1224.856,2633.841Zm29.548,16.844a1.133,1.133,0,0,1,.166-.207,2.042,2.042,0,0,1,3.476-.662c1.407,1.324,2.731,2.69,4.18,3.973a1.708,1.708,0,0,0,1.242.372,1.871,1.871,0,0,0,.952-3.269c-1.366-1.366-2.731-2.731-4.056-4.1a2.063,2.063,0,0,1-.124-3.062,2.1,2.1,0,0,1,3.062.124c1.366,1.366,2.773,2.732,4.138,4.1.911.91,1.614.91,2.483.041,1.035-.993,1.035-1.7,0-2.731-1.655-1.7-3.352-3.352-5.007-5.049a1.925,1.925,0,0,1-.538-2.069,2.009,2.009,0,0,1,1.573-1.448,2.279,2.279,0,0,1,2.152.786l4.966,4.966a1.434,1.434,0,0,0,1.614.5,1.877,1.877,0,0,0,.786-3.311c-7.573-7.532-15.105-15.1-22.679-22.637a6.62,6.62,0,0,1-.538-.538,3.718,3.718,0,0,0-.414.373c-1.656,1.573-3.27,3.145-4.883,4.718a7.183,7.183,0,0,1-4.925,2.152c-3.518.165-7.035-3.394-7.656-5.959a9.15,9.15,0,0,1-.207-2.814,6.584,6.584,0,0,1,2.11-4.18l5.09-5.09c-.455-.414-.828-.786-1.283-1.2-6.415,6.539-12.788,13.036-19.2,19.533,2.318,2.235,4.594,4.387,6.911,6.663.29-.331.5-.621.7-.869,1.2-1.2,2.4-2.483,3.683-3.642a5.545,5.545,0,0,1,7.325,0,6.188,6.188,0,0,1,2.442,4.221,6.506,6.506,0,0,1,4.552,2.855,5.728,5.728,0,0,1,.786,5.215,2.625,2.625,0,0,0,.248.165c2.566,1.49,4.3,4.263,3.352,7.118-.041.124.166.455.373.579a8.768,8.768,0,0,1,3.145,4.387Zm10.1-44.447c-.373.372-.745.662-1.076.993a7.383,7.383,0,0,1-10.553-.166c-.538-.538-1.076-1.117-1.655-1.614a2.623,2.623,0,0,0-3.725.083c-2.9,2.856-5.753,5.753-8.608,8.649a2.6,2.6,0,0,0-.124,3.476,8.451,8.451,0,0,0,1.035,1.076,2.8,2.8,0,0,0,4.138.041c1.2-1.159,2.4-2.318,3.642-3.476,1.283-1.242,2.607-2.483,3.89-3.725a2.055,2.055,0,0,1,2.276-.5,2.078,2.078,0,0,1,1.324,1.9,1.7,1.7,0,0,0,.414.869l14.4,14.4c1.2,1.2,2.317,2.442,3.393,3.6l8.36-8.36Q1273.069,2614.99,1264.5,2606.238Zm4.883-11.174c-1.78,1.779-3.435,3.435-4.966,4.925,7.2,7.325,14.443,14.691,21.644,21.975,1.738-1.738,3.435-3.394,4.966-4.925C1283.828,2609.755,1276.586,2602.389,1269.385,2595.064Zm-36.128.29c-7.16,7.283-14.319,14.567-21.4,21.768,1.738,1.738,3.352,3.394,5.049,5.049l21.437-21.809C1236.609,2598.706,1234.953,2597.05,1233.257,2595.354Zm10.181,41.467a2.744,2.744,0,0,0-1.614-2.028c-.662-.331-1.241.042-1.738.5-2.938,2.938-5.877,5.918-8.815,8.856-.786.786-.745,1.531.083,2.4.952.952,1.7,1.035,2.525.248,3.021-2.979,6-6,8.98-9.022a4.882,4.882,0,0,0,.579-.952Zm-5.463-5.794c-.414-.538-.786-1.034-1.2-1.49a1.321,1.321,0,0,0-1.986,0c-3.062,3.021-6.083,6.042-9.1,9.1-.786.828-.662,1.531.331,2.483a1.5,1.5,0,0,0,2.359.083c3.021-2.98,6-6,8.98-9.022a7.017,7.017,0,0,0,.621-1.158Zm8.9,13.533a2.657,2.657,0,0,0-1.49-2.152,1.492,1.492,0,0,0-1.738.5c-2.276,2.318-4.594,4.594-6.87,6.911a1.478,1.478,0,0,0,.083,2.235c.952.993,1.738,1.159,2.525.414,2.359-2.359,4.718-4.718,7.077-7.118a3.671,3.671,0,0,0,.414-.786Zm-5.008,11.67a2.5,2.5,0,0,0,1.448,2.069,1.492,1.492,0,0,0,1.821-.414c1.531-1.573,3.1-3.1,4.635-4.676a1.569,1.569,0,0,0-.083-2.566c-.952-.952-1.655-.952-2.566-.041-1.573,1.573-3.186,3.187-4.718,4.8a2.04,2.04,0,0,0-.538.828Zm11.381-.373c.993,1.076,2.11,2.193,3.186,3.311a1.452,1.452,0,0,0,1.738.5,2.276,2.276,0,0,0,1.448-1.821,1.448,1.448,0,0,0-.331-.911c-1.531-1.573-3.1-3.1-4.552-4.552-.5,1.076-.993,2.276-1.49,3.476Z" transform="translate(-1206.75 -2590.025)"/>
              <g id="Group_182" data-name="Group 182" transform="translate(77.366 24.694)">
                <path id="Path_739" data-name="Path 739" class="cls-1" d="M1395.767,2649.7a2.028,2.028,0,1,1-2.069,1.945,1.972,1.972,0,0,1,2.069-1.945Z" transform="translate(-1393.696 -2649.694)"/>
              </g>
              <g id="Group_183" data-name="Group 183" transform="translate(24.437 8.388)">
                <path id="Path_740" data-name="Path 740" class="cls-1" d="M1267.828,2614.353a2.094,2.094,0,0,1-2.028-2.069,2.016,2.016,0,0,1,2.11-1.986,2.04,2.04,0,0,1,2.069,2.028,2.085,2.085,0,0,1-2.152,2.028Z" transform="translate(-1265.8 -2610.295)"/>
              </g>
            </g>
            <path id="Path_741" data-name="Path 741" class="cls-6" d="M1289.686,2503.4a13.055,13.055,0,0,1,12.995,14.2,19.667,19.667,0,0,1-.786,3.435.791.791,0,0,0,.124.786c1.738,2.276,3.476,4.594,5.214,6.87a1.476,1.476,0,0,1,.372,1.407,1.283,1.283,0,0,1-1.117.952c-1.738.207-3.435.414-5.173.579a.8.8,0,0,0-.745.538c-.621,1.531-1.241,3.063-1.9,4.552a1.347,1.347,0,0,1-2.525.331c-1.821-2.442-3.683-4.884-5.5-7.284a1.167,1.167,0,0,0-1.738,0c-1.821,2.4-3.6,4.842-5.463,7.2a2.3,2.3,0,0,1-1.035.745,1.233,1.233,0,0,1-1.448-.828c-.662-1.614-1.324-3.187-1.986-4.8a.713.713,0,0,0-.621-.5c-1.7-.165-3.394-.372-5.049-.579a1.35,1.35,0,0,1-.993-2.276c1.7-2.276,3.352-4.552,5.09-6.829a.872.872,0,0,0,.124-.993,12.926,12.926,0,0,1,12.167-17.506Zm.041,2.648a10.367,10.367,0,1,0,10.346,10.388,10.341,10.341,0,0,0-10.346-10.388Zm14.071,22.6c-1.2-1.614-2.359-3.1-3.518-4.677a11.331,11.331,0,0,1-3.1,3.021c-1.2.745-2.525,1.365-3.766,2.028,1.159,1.531,2.318,3.1,3.559,4.718.538-1.283,1.076-2.524,1.573-3.766a1.41,1.41,0,0,1,1.076-.91c.29-.041.621-.083.911-.124C1301.6,2528.892,1302.639,2528.768,1303.8,2528.644Zm-28.058,0a2.714,2.714,0,0,0,.455.083c1.2.124,2.4.29,3.6.414a1.459,1.459,0,0,1,1.2.869,5.06,5.06,0,0,1,.29.7c.414.993.828,2.028,1.283,3.1,1.242-1.655,2.442-3.228,3.642-4.8-3.849-1.655-3.849-1.655-7.036-4.925C1277.974,2525.54,1276.9,2527.072,1275.739,2528.644Z" transform="translate(-1244.97 -2503.399)"/>
          </g>
        </g>
        <path id="Path_742" data-name="Path 742" class="cls-1" d="M1315.283,2529.59c-2.11.331-3.269-.579-3.6-2.69-.372.827-.455,1.7-1.2,2.276-.745.538-1.614.331-2.483.5,1.9.993,2.318,2.4,1.366,4.3,1.573-1.49,3.063-1.531,4.552,0a5.338,5.338,0,0,1-.331-2.524C1313.794,2530.583,1314.621,2530.211,1315.283,2529.59Z" transform="translate(-1266.098 -2517.174)"/>
        <path id="Path_743" data-name="Path 743" class="cls-6" d="M1307.059,2519.956h2.566a2.1,2.1,0,0,1,2.069,1.448,2.161,2.161,0,0,1-.745,2.4c-.579.455-1.2.869-1.78,1.283a.47.47,0,0,0-.207.621c.248.662.414,1.324.621,1.945a2.074,2.074,0,0,1-.7,2.483,2.121,2.121,0,0,1-2.649-.083c-.538-.372-1.117-.786-1.614-1.2a.538.538,0,0,0-.786,0c-.538.414-1.076.786-1.614,1.2a2.174,2.174,0,0,1-2.607.042,2.123,2.123,0,0,1-.745-2.442c.207-.662.414-1.366.662-2.028a.471.471,0,0,0-.207-.662c-.579-.373-1.117-.786-1.656-1.2a2.184,2.184,0,0,1-.91-2.483,2.118,2.118,0,0,1,2.193-1.448c.662,0,1.366-.041,2.028,0a.515.515,0,0,0,.579-.414c.166-.662.414-1.283.621-1.9a2.1,2.1,0,0,1,2.069-1.614,2.177,2.177,0,0,1,2.11,1.656C1306.563,2518.425,1306.811,2519.211,1307.059,2519.956Zm.828,2.69c-2.111.331-3.269-.579-3.6-2.69-.372.828-.455,1.7-1.2,2.276-.745.538-1.614.331-2.483.5,1.9.993,2.318,2.4,1.366,4.3,1.573-1.49,3.062-1.531,4.552,0a5.342,5.342,0,0,1-.331-2.524C1306.4,2523.639,1307.225,2523.267,1307.887,2522.646Z" transform="translate(-1259.447 -2510.727)"/>
      </g>
    </g>
  </g>
</svg>
