<svg xmlns="http://www.w3.org/2000/svg" xmlns:xlink="http://www.w3.org/1999/xlink" viewBox="0 0 230 230">
  <defs>
    <style>
      .cls-1 {
        fill: #fff;
      }

      .cls-2 {
        fill: #f4f4f4;
      }

      .cls-3 {
        fill: #37beb7;
      }

      .cls-4 {
        fill: #fbc316;
      }

      .cls-5 {
        fill: #000078;
      }

      .cls-6 {
        filter: url(#Rectangle_34);
      }
    </style>
    <filter id="Rectangle_34" x="0" y="0" width="230" height="230" filterUnits="userSpaceOnUse">
      <feOffset dy="4" input="SourceAlpha"/>
      <feGaussianBlur stdDeviation="5" result="blur"/>
      <feFlood flood-opacity="0.102"/>
      <feComposite operator="in" in2="blur"/>
      <feComposite in="SourceGraphic"/>
    </filter>
  </defs>
  <g id="Group_34" data-name="Group 34" transform="translate(-514 -2066)">
    <g id="Group_91" data-name="Group 91" transform="translate(-1160.904 630.911)">
      <g id="Group_90" data-name="Group 90" transform="translate(1744.327 1498.244)">
        <path id="Path_332" data-name="Path 332" class="cls-2" d="M1842.194,1617.7c-1.129-.056-2.257,0-3.442,0v-60.375c0-2.2-.621-2.821-2.821-2.821h-10.213c-2.257,0-2.821.564-2.821,2.821V1617.7h-8.182V1583.39c0-2.144-.677-2.821-2.765-2.821h-10.382c-2.088,0-2.708.677-2.708,2.765v34.307h-8.182v-48.3c0-2.144-.621-2.765-2.765-2.765H1777.7c-2.313,0-2.878.564-2.878,2.878V1617.7h-8.182v-26.351c0-2.031-.621-2.708-2.652-2.708h-10.326c-2.313,0-2.878.564-2.878,2.878v26.238h-.959a23.575,23.575,0,0,0-2.821.056,1.875,1.875,0,0,0-1.805,1.918,1.975,1.975,0,0,0,1.805,2.031,6.816,6.816,0,0,0,1.072.056h93.5a6.421,6.421,0,0,0,1.467-.113,1.83,1.83,0,0,0,1.411-1.918A2.229,2.229,0,0,0,1842.194,1617.7Zm-87.459-25h7.674v.9h-6.771v24.037h-.9Zm24.093-22.062h7.674v.9h-6.771v46.1h-.9Zm24.094,14.05h7.674v.9h-6.771v32.05h-.9Zm24.037-26.068h7.674v.9h-6.771v58.118h-.9Z" transform="translate(-1745.198 -1523.481)"/>
        <path id="Path_333" data-name="Path 333" class="cls-2" d="M1762.465,1549.617a7.98,7.98,0,0,0,8.238-7.053,8.156,8.156,0,0,0-1.636-5.868c4.288-3.611,8.52-7.222,12.809-10.834a8.165,8.165,0,0,0,6.094,1.58,8.012,8.012,0,0,0,5.36-3.216c3.16,1.975,6.207,3.893,9.31,5.812a.959.959,0,0,1,.508,1.354,8.017,8.017,0,1,0,14.163-2.6l14.05-14.05a8.052,8.052,0,1,0-3.16-2.821c0,.056-.057.113-.057.169-4.57,4.57-9.2,9.141-13.768,13.711a1.2,1.2,0,0,1-.9.169,7.784,7.784,0,0,0-6.94,1.016,1.02,1.02,0,0,1-1.3,0c-2.991-1.919-6.038-3.837-9.084-5.642a2.159,2.159,0,0,1-1.241-2.088,7.574,7.574,0,0,0-5.191-7.166,7.456,7.456,0,0,0-8.238,1.693,7.787,7.787,0,0,0-2.088,8.464,1.041,1.041,0,0,1-.282.959c-4.232,3.555-8.464,7.11-12.752,10.664a1.283,1.283,0,0,1-1.016.169,8,8,0,1,0-2.878,15.573Zm72.563-46.156a3.822,3.822,0,0,1,2.6,1.016,4.148,4.148,0,0,0-1.693-.4,3.986,3.986,0,0,0-4.062,3.95,4.175,4.175,0,0,0,1.354,3.1,3.981,3.981,0,0,1-2.257-3.668,4.033,4.033,0,0,1,4.063-4.006Zm-24.094,26.068a3.822,3.822,0,0,1,2.6,1.016,4.006,4.006,0,0,0-4.4,6.6,4.108,4.108,0,0,1-2.313-3.611,4.2,4.2,0,0,1,4.119-4.006Zm-24.037-13.994a4.045,4.045,0,0,1,2.6,1.016,4.142,4.142,0,0,0-1.693-.4,3.965,3.965,0,0,0-4.063,3.837,4.147,4.147,0,0,0,1.411,3.16,4.264,4.264,0,0,1-2.313-3.781,3.965,3.965,0,0,1,4.063-3.837Zm-24.15,22.006a3.821,3.821,0,0,1,2.6,1.016,3.411,3.411,0,0,0-1.693-.4,4.048,4.048,0,0,0-4.006,3.95,4.247,4.247,0,0,0,1.3,3.1,3.87,3.87,0,0,1-2.2-3.724,4.086,4.086,0,0,1,4.006-3.95Z" transform="translate(-1749.374 -1499.527)"/>
      </g>
      <path id="Path_334" data-name="Path 334" class="cls-3" d="M1897.774,1619.577V1560.5H1890.1v59.077Z" transform="translate(-64.012 -27.852)"/>
      <path id="Path_335" data-name="Path 335" class="cls-3" d="M1804.7,1581.8v47h7.674v-47Z" transform="translate(-26.799 -37.134)"/>
      <path id="Path_336" data-name="Path 336" class="cls-3" d="M1855.074,1639.752V1606.8H1847.4v32.952Z" transform="translate(-45.406 -48.027)"/>
      <path id="Path_337" data-name="Path 337" class="cls-3" d="M1762,1645.84h7.674V1620.9H1762Z" transform="translate(-8.193 -54.171)"/>
      <path id="Path_338" data-name="Path 338" class="cls-4" d="M1893.692,1512.755a3.979,3.979,0,1,0-3.893-4.006,3.893,3.893,0,0,0,3.893,4.006Z" transform="translate(-63.88 -3.58)"/>
      <path id="Path_339" data-name="Path 339" class="cls-4" d="M1765.705,1573.234a3.993,3.993,0,1,0-4.006-4.063,3.964,3.964,0,0,0,4.006,4.063Z" transform="translate(-8.061 -29.921)"/>
      <path id="Path_340" data-name="Path 340" class="cls-4" d="M1851.106,1558.912a4.087,4.087,0,0,0,4.006-3.95,4.006,4.006,0,1,0-4.006,3.95Z" transform="translate(-45.275 -23.669)"/>
      <path id="Path_341" data-name="Path 341" class="cls-4" d="M1808.459,1526.1a3.965,3.965,0,0,0-4.062,3.837,4.037,4.037,0,1,0,4.063-3.837Z" transform="translate(-26.665 -12.861)"/>
      <path id="Path_342" data-name="Path 342" class="cls-5" d="M1812.828,1614.7h8.182v-60.375c0-2.257.564-2.821,2.821-2.821h10.213c2.2,0,2.821.621,2.821,2.821V1614.7h3.442a2,2,0,0,1,2.144,1.919,1.792,1.792,0,0,1-1.411,1.918,6.192,6.192,0,0,1-1.467.113h-93.5a6.831,6.831,0,0,1-1.072-.057,1.975,1.975,0,0,1-1.805-2.031,1.915,1.915,0,0,1,1.806-1.918c.959-.057,1.862-.057,2.821-.057h.959v-26.238c0-2.313.564-2.878,2.878-2.878h10.326c2.031,0,2.652.677,2.652,2.708v26.35h8.182v-48.244c0-2.313.564-2.878,2.878-2.878h10.213c2.144,0,2.765.621,2.765,2.765v48.3h8.182v-34.306c0-2.088.621-2.765,2.708-2.765h10.382c2.088,0,2.765.677,2.765,2.821v33.065A6.456,6.456,0,0,1,1812.828,1614.7Zm19.974,0v-59.077h-7.674V1614.7Zm-55.8-47v47h7.674v-47Zm31.711,47v-32.952h-7.674V1614.7Zm-55.8,0h7.674v-24.94H1752.9Z" transform="translate(0 -23.93)"/>
      <path id="Path_343" data-name="Path 343" class="cls-5" d="M1826.554,1509.006a8.017,8.017,0,0,1,2.088-10.946,7.931,7.931,0,0,1,10.044.677,8.012,8.012,0,0,1-8.971,13.091l-14.05,14.05a8.029,8.029,0,1,1-14.163,2.6.959.959,0,0,0-.508-1.354c-3.1-1.918-6.15-3.837-9.31-5.812a8.137,8.137,0,0,1-5.36,3.216,8.416,8.416,0,0,1-6.094-1.58c-4.288,3.611-8.52,7.166-12.808,10.834a8.23,8.23,0,0,1,1.636,5.868,7.988,7.988,0,1,1-5.417-8.633,1.283,1.283,0,0,0,1.016-.169c4.288-3.5,8.52-7.053,12.752-10.664a1.158,1.158,0,0,0,.282-.959,7.689,7.689,0,0,1,2.088-8.464,7.379,7.379,0,0,1,8.238-1.693,7.574,7.574,0,0,1,5.191,7.166,2.31,2.31,0,0,0,1.241,2.088c3.047,1.862,6.037,3.724,9.084,5.643a1.02,1.02,0,0,0,1.3,0,7.963,7.963,0,0,1,6.94-1.016c.282.057.734.057.9-.169,4.627-4.57,9.2-9.141,13.768-13.711C1826.5,1509.119,1826.5,1509.062,1826.554,1509.006Zm6.658-.451a3.979,3.979,0,1,0-3.893-4.006,3.893,3.893,0,0,0,3.893,4.006Zm-72.168,34.137a3.993,3.993,0,1,0-4.006-4.063,3.964,3.964,0,0,0,4.006,4.063Zm48.187-8.069a4.087,4.087,0,0,0,4.006-3.95,4.034,4.034,0,0,0-4.006-4.063,4.108,4.108,0,0,0-4.062,4.006A4.032,4.032,0,0,0,1809.232,1534.623Zm-24.037-22.006a3.966,3.966,0,0,0-4.063,3.837,4.037,4.037,0,1,0,4.063-3.837Z" transform="translate(-4.303)"/>
    </g>
  </g>
</svg>
