<svg xmlns="http://www.w3.org/2000/svg" xmlns:xlink="http://www.w3.org/1999/xlink" viewBox="0 0 230 230">
  <defs>
    <style>
      .cls-1 {
        fill: #fff;
      }

      .cls-2 {
        fill: #f4f4f4;
      }

      .cls-3 {
        fill: #f7f8fb;
      }

      .cls-4 {
        fill: #37beb7;
      }

      .cls-5 {
        fill: #fbc316;
      }

      .cls-6 {
        fill: #000078;
      }

      .cls-7 {
        filter: url(#Rectangle_52);
      }
    </style>
    <filter id="Rectangle_52" x="0" y="0" width="230" height="230" filterUnits="userSpaceOnUse">
      <feOffset dy="4" input="SourceAlpha"/>
      <feGaussianBlur stdDeviation="5" result="blur"/>
      <feFlood flood-opacity="0.102"/>
      <feComposite operator="in" in2="blur"/>
      <feComposite in="SourceGraphic"/>
    </filter>
  </defs>
  <g id="Group_50" data-name="Group 50" transform="translate(-151 -114)">
    <g id="Group_140" data-name="Group 140" transform="translate(-3143.439 -2875.1)">
      <g id="Group_133" data-name="Group 133" transform="translate(3363.365 3050.805)">
        <path id="Path_537" data-name="Path 537" class="cls-2" d="M3455.359,3160.138h-4.009v-40.661a7.252,7.252,0,0,0-.4-2.555c-.749-2.026-2.467-3.128-4.978-3.128H3419.5a13.191,13.191,0,0,0,4.581-9.912,12.954,12.954,0,0,0-4.493-10.044,13.174,13.174,0,0,0-17.489.088,12.575,12.575,0,0,0-4.317,8.414,13.3,13.3,0,0,0,4.537,11.454h-8.15c-5.9,0-12.027,0-18.062-.044a5.081,5.081,0,0,0-3.92,1.5,5.417,5.417,0,0,0-1.542,3.92c.044,10.044.044,20.22.044,30.088v9.868a4.029,4.029,0,0,1-.044.7v.264h-3.656c-1.1,0-1.674.132-2.027.529-.352.352-.485.969-.4,2.071,0,.176.044.308.044.44v.132a11.063,11.063,0,0,0,11.1,9.471h.044c14.846-.044,29.956-.044,44.537-.044h26.784a10.833,10.833,0,0,0,10.4-10.353,2.359,2.359,0,0,0-.441-1.762C3456.769,3160.27,3456.24,3160.138,3455.359,3160.138Zm-1.85,3.348a4.149,4.149,0,0,1-.176.705H3422.1v.264c0,.22-.044.441-.044.661a4.08,4.08,0,0,1-4.009,3.833q-5.881.066-11.762,0a3.869,3.869,0,0,1-2.6-.969,3.875,3.875,0,0,0,1.454.264c3.876.044,7.841.044,11.762,0a4.047,4.047,0,0,0,4.009-3.833c0-.22.044-.44.044-.661v-.264h32.555Zm-42.644-37.225c-.22,2.423-.44,4.934-.7,7.4a2.861,2.861,0,0,0,.484,2.2,2.66,2.66,0,0,1-.925-2.687c.264-2.467.485-4.978.7-7.4.176-2.247.4-4.537.617-6.784a.749.749,0,0,0,.044.308c.088.793.132,1.586.22,2.379C3411.13,3123.266,3411,3124.763,3410.866,3126.261Zm15.683,7.048a5.328,5.328,0,0,0-.044-.837,1.63,1.63,0,0,0-.749-1.234,1.6,1.6,0,0,1,1.674,1.454,5.332,5.332,0,0,1,.044.837v7.929h-.925v-3.524C3426.593,3136.349,3426.593,3134.852,3426.549,3133.31ZM3388,3123.75a1.85,1.85,0,0,0-.176.441h-6.608v29.691h-.925v-30.617h7.974c-.088.176-.176.308-.264.484Zm-8.811,33.524h63.745c1.718,0,2.291-.573,2.291-2.291v-32.819a3.375,3.375,0,0,0-.264-1.5c.881.265,1.189.925,1.189,2.159v32.819c0,1.718-.573,2.291-2.291,2.291h-63.744c-1.1,0-1.718-.22-2.027-.793A3.762,3.762,0,0,0,3379.192,3157.274Zm20.485-15.859h-.925v-8.062a6.812,6.812,0,0,0-.044-.925,1.545,1.545,0,0,0-.749-1.189,1.564,1.564,0,0,1,1.674,1.454,6.852,6.852,0,0,1,.044.925Zm26.608,3.348h7.577c1.366,0,1.982-.617,1.982-1.938v-11.277a17.656,17.656,0,0,0-1.85-7.8c-.044-.132-.132-.265-.176-.4l-.044-.088h8.106v.925H3434.7l.044.088a1.561,1.561,0,0,1,.176.4,17.8,17.8,0,0,1,1.85,7.8c.044,3.216,0,6.52,0,9.692v1.586c0,1.366-.617,1.938-1.982,1.938h-45.462c-1.234,0-1.85-.264-2.115-1.057a4.428,4.428,0,0,0,1.189.132Zm-8.811,19.868c-.176.22-.485.309-1.057.309h-10.661a1.85,1.85,0,0,1-1.1-.22c-.176-.176-.22-.529-.132-1.189h13.04C3417.65,3164.059,3417.65,3164.411,3417.474,3164.631Zm11.409-47.489h17.181c.925,0,1.5.22,1.762.793a4.439,4.439,0,0,0-.837-.088h-17.181a.98.98,0,0,0-.353.044c.22.176.4.352.617.528.529.485,1.013.925,1.5,1.366a1.459,1.459,0,0,1-.705-.485c-.529-.572-1.1-1.057-1.674-1.585a7.648,7.648,0,0,0-.617-.529.745.745,0,0,1,.308-.044Zm-9.207.088a16.9,16.9,0,0,1,2.247.44c-.44-.088-.881-.176-1.322-.22a21.677,21.677,0,0,0-3.789-.088c-.529,0-1.1.044-1.63.044v.837l.22,2.775c.4,4.582.793,9.3,1.189,13.965a2.684,2.684,0,0,1-.837,2.379c-.485.484-1.013.969-1.454,1.454-.352.353-.7.705-1.057,1.013a1.68,1.68,0,0,1-2.2.4,2.157,2.157,0,0,0,1.278-.617c.352-.353.7-.7,1.057-1.013l1.454-1.454a2.683,2.683,0,0,0,.837-2.379c-.4-4.67-.793-9.383-1.189-13.965l-.22-2.775v-.837c.529,0,1.1,0,1.63-.044a21.677,21.677,0,0,1,3.789.088Zm-18.59-13.48a9.937,9.937,0,0,1,9.824-9.912H3411a9.561,9.561,0,0,1,5.551,1.762,9.549,9.549,0,0,0-4.405-1.057h-.088a9.96,9.96,0,0,0-5.595,18.105,9.835,9.835,0,0,1-5.374-8.9Zm2.864,13.348h3.789v.22h-2.819a14.441,14.441,0,0,0-14.054,11.1,38.711,38.711,0,0,0-.44,9.821c.044,1.057.088,2.115.088,3.172h-.925c0-1.146-.044-2.291-.088-3.392a38.6,38.6,0,0,1,.44-9.824,14.354,14.354,0,0,1,14.009-11.1Zm-29.956,2.2c0-1.674.44-2.158,2.159-2.158h17.313a7,7,0,0,0-.573.573l-.132.132h-15.683c-1.674,0-2.158.441-2.158,2.159v40.088h-.925Zm-5.418,44.493c0-.088-.044-.132-.044-.264v-.088h32.511v.264a1.5,1.5,0,0,0,.044.44h-31.41v.088a.561.561,0,0,0,.044.264,7.862,7.862,0,0,0,2.819,4.229A7.473,7.473,0,0,1,3368.575,3163.794Z" transform="translate(-3364.54 -3073.442)"/>
        <path id="Path_538" data-name="Path 538" class="cls-2" d="M3532.089,3057.25a5.181,5.181,0,0,0-5.551-5.551h-19.56c-1.366,0-2.819,0-4.229.044a5.057,5.057,0,0,0-4.934,4.846c-.088,4.185-.088,8.018,0,11.85a5.045,5.045,0,0,0,5.242,5.022h2.6v5.154a1.691,1.691,0,0,0,1.189,1.762,2.268,2.268,0,0,0,.485.088,1.978,1.978,0,0,0,1.366-.705c.529-.529,1.057-1.013,1.586-1.542,1.41-1.366,2.864-2.819,4.317-4.185a2.032,2.032,0,0,1,1.189-.485c2.688-.044,5.375-.044,8.018-.044h2.819a5.065,5.065,0,0,0,5.418-5.418C3532.089,3064.607,3532.089,3060.951,3532.089,3057.25Zm-30.925,10.837v-11.1a1.712,1.712,0,0,1,1.894-1.938H3526.8a1.719,1.719,0,0,1,1.806,1.057,2.643,2.643,0,0,0-.881-.132h-23.745a1.712,1.712,0,0,0-1.894,1.938v11.1a2.918,2.918,0,0,0,.132.925A1.744,1.744,0,0,1,3501.164,3068.088Zm7.841,6.652v-2.6a2.927,2.927,0,0,0-.132-.925,1.71,1.71,0,0,1,1.057,1.85v1.189a8.8,8.8,0,0,0-.617.7Z" transform="translate(-3439.067 -3051.7)"/>
      </g>
      <g id="Group_139" data-name="Group 139" transform="translate(3362.44 3050.1)">
        <path id="Path_539" data-name="Path 539" class="cls-3" d="M3408.065,3165.785c-.22.485-.4.925-.617,1.366a18.1,18.1,0,0,0-1.233,6.96v10.44c0,1.762.485,2.247,2.247,2.247h45.462c1.366,0,1.982-.617,1.982-1.938v-11.278a17.656,17.656,0,0,0-1.85-7.8c-.044-.132-.132-.264-.176-.4l-.044-.088h8.105v30.617H3400.4V3165.3h7.974A2.952,2.952,0,0,0,3408.065,3165.785Z" transform="translate(-3383.677 -3114.551)"/>
        <path id="Path_540" data-name="Path 540" class="cls-4" d="M3381.237,3261.947c-3.392,0-6.035-2.071-7.093-5.595,0-.088-.044-.132-.044-.265V3256h32.511v.264c0,.264.044.485.044.7a4.017,4.017,0,0,0,4.009,3.833c3.877.044,7.842.044,11.762,0a4.047,4.047,0,0,0,4.009-3.833c0-.22.044-.44.044-.661v-.265h32.555a7.075,7.075,0,0,1-1.542,3.3,6.677,6.677,0,0,1-5.551,2.6Z" transform="translate(-3368.963 -3165.295)"/>
        <path id="Path_541" data-name="Path 541" class="cls-4" d="M3404.854,3151.473c-.749.7-1.454,1.41-2.2,2.07a1.3,1.3,0,0,1-.617.088h-10.881c-1.762,0-2.335.573-2.335,2.334V3188.7c0,1.762.573,2.335,2.291,2.335h63.745c1.718,0,2.291-.573,2.291-2.291v-32.82c0-1.674-.573-2.291-2.247-2.291h-10.661a1.8,1.8,0,0,1-1.41-.573c-.529-.573-1.1-1.057-1.674-1.586a7.708,7.708,0,0,0-.617-.529c.132,0,.264-.044.353-.044h17.181c1.454,0,1.982.529,1.982,1.982v40.308a1.806,1.806,0,0,1-.044.485v.176H3386v-40.793c0-1.674.44-2.159,2.159-2.159h17.313C3405.251,3151.076,3405.075,3151.3,3404.854,3151.473Z" transform="translate(-3375.621 -3106.495)"/>
        <path id="Path_542" data-name="Path 542" class="cls-5" d="M3467.344,3171.792a2.675,2.675,0,0,1-1.278-2.908c.265-2.467.485-4.978.705-7.4.176-2.247.4-4.537.617-6.784a.745.745,0,0,0,.044.308c.088,1.1.22,2.247.309,3.348s.176,2.2.264,3.26c.176,2.467.4,5.022.661,7.533A2.722,2.722,0,0,1,3467.344,3171.792Z" transform="translate(-3420.401 -3108.621)"/>
        <path id="Path_543" data-name="Path 543" class="cls-4" d="M3438.283,3149.7h1.233l-.176,2.071c-.132,1.454-.22,2.907-.353,4.361l-.132,1.806q-.4,4.89-.793,9.78a2.125,2.125,0,0,0,.661,1.806l1.454,1.454c.441.44.837.881,1.278,1.277a1.752,1.752,0,0,0,2.687,0c.353-.352.705-.7,1.057-1.013l1.454-1.454a2.684,2.684,0,0,0,.837-2.379c-.4-4.67-.793-9.383-1.189-13.965l-.22-2.775v-.837c.528,0,1.1,0,1.63-.044a21.75,21.75,0,0,1,3.789.088,14.281,14.281,0,0,1,12.731,14.053c.088,2.291.088,4.625.044,6.872v3a.56.56,0,0,1-.044.264v.044h-5.859v-8.15a5.3,5.3,0,0,0-.044-.837,1.588,1.588,0,0,0-1.762-1.454,1.625,1.625,0,0,0-1.5,1.718v8.634h-24.493v-8.062a6.773,6.773,0,0,0-.044-.925,1.554,1.554,0,0,0-1.762-1.41,1.639,1.639,0,0,0-1.454,1.674v8.722h-5.859c0-1.145-.044-2.291-.088-3.392a38.6,38.6,0,0,1,.44-9.824,14.366,14.366,0,0,1,14.053-11.1Z" transform="translate(-3395.349 -3105.823)"/>
        <path id="Path_544" data-name="Path 544" class="cls-3" d="M3457.967,3098a9.772,9.772,0,0,1,6.872,2.819,10.093,10.093,0,0,1,2.951,7.181,9.928,9.928,0,0,1-9.868,9.912h0a9.806,9.806,0,0,1-9.823-9.956,9.937,9.937,0,0,1,9.823-9.912C3457.922,3098,3457.922,3098,3457.967,3098Z" transform="translate(-3410.363 -3076.899)"/>
        <path id="Path_545" data-name="Path 545" class="cls-5" d="M3513.285,3076.849a1.752,1.752,0,0,0-1.982-1.982h-3.877a1.815,1.815,0,0,1-2.026-2.027v-11.1a1.712,1.712,0,0,1,1.894-1.938h23.744a1.744,1.744,0,0,1,1.938,1.938v11.189a1.739,1.739,0,0,1-1.982,1.938h-2.687c-2.863,0-5.815,0-8.766-.044a3.178,3.178,0,0,0-2.687,1.1c-.793.925-1.586,1.806-2.379,2.687-.308.353-.617.705-.969,1.057l-.308-.176v-.749a13.638,13.638,0,0,0,.088-1.894Z" transform="translate(-3442.422 -3055.527)"/>
        <g id="Group_138" data-name="Group 138">
          <g id="Group_137" data-name="Group 137">
            <path id="Path_546" data-name="Path 546" class="cls-6" d="M3453.26,3158.538h-4.009v-40.661a7.235,7.235,0,0,0-.4-2.555c-.749-2.026-2.467-3.128-4.978-3.128H3417.4a13.192,13.192,0,0,0,4.582-9.912,12.955,12.955,0,0,0-4.494-10.044,13.173,13.173,0,0,0-17.489.088,12.577,12.577,0,0,0-4.317,8.414,13.3,13.3,0,0,0,4.538,11.454h-8.15c-5.9,0-12.026,0-18.062-.044a5.082,5.082,0,0,0-3.921,1.5,5.42,5.42,0,0,0-1.542,3.921c.044,10.044.044,20.22.044,30.088v9.868a4.029,4.029,0,0,1-.044.7v.264h-3.656c-1.1,0-1.674.132-2.026.529-.353.353-.485.969-.4,2.071,0,.176.044.308.044.441v.132a11.064,11.064,0,0,0,11.1,9.472h.044c14.846-.044,29.956-.044,44.538-.044h26.784a10.832,10.832,0,0,0,10.4-10.352,2.358,2.358,0,0,0-.44-1.762C3454.669,3158.67,3454.141,3158.538,3453.26,3158.538Zm-44.361-24.009a2.674,2.674,0,0,1-1.278-2.908c.265-2.467.485-4.978.705-7.4.176-2.247.4-4.537.617-6.784a.745.745,0,0,0,.044.308c.088,1.1.22,2.247.309,3.348s.176,2.2.264,3.26c.176,2.467.4,5.022.661,7.533a2.576,2.576,0,0,1-1.322,2.643Zm-4.449-19.031h1.234l-.176,2.07c-.132,1.454-.22,2.908-.352,4.361l-.132,1.806q-.4,4.89-.793,9.78a2.127,2.127,0,0,0,.661,1.806l1.454,1.454c.44.441.837.881,1.277,1.278a1.752,1.752,0,0,0,2.687,0c.352-.352.7-.7,1.057-1.013l1.454-1.454a2.683,2.683,0,0,0,.837-2.379c-.4-4.669-.793-9.383-1.189-13.965l-.22-2.775v-.837c.529,0,1.1,0,1.63-.044a21.773,21.773,0,0,1,3.789.088,14.281,14.281,0,0,1,12.731,14.053c.088,2.291.088,4.625.044,6.872v3a.56.56,0,0,1-.044.265v.044h-5.859v-8.15a5.3,5.3,0,0,0-.044-.837,1.588,1.588,0,0,0-1.762-1.454,1.625,1.625,0,0,0-1.5,1.718v8.635H3396.74v-8.062a6.811,6.811,0,0,0-.044-.925,1.554,1.554,0,0,0-1.762-1.41,1.638,1.638,0,0,0-1.454,1.674v8.723h-5.859c0-1.146-.044-2.291-.088-3.392a38.622,38.622,0,0,1,.441-9.824,14.366,14.366,0,0,1,14.053-11.1Zm-18.546,6.652c-.22.485-.4.925-.617,1.366a18.1,18.1,0,0,0-1.233,6.96v10.44c0,1.762.485,2.247,2.247,2.247h45.463c1.366,0,1.982-.617,1.982-1.938v-11.278a17.659,17.659,0,0,0-1.85-7.8c-.044-.132-.132-.264-.176-.4l-.044-.088h8.106v30.617h-61.542v-30.617h7.974A2.97,2.97,0,0,0,3385.9,3122.15Zm4.846-6.035c-.749.705-1.454,1.41-2.2,2.07a1.3,1.3,0,0,1-.616.088h-10.881c-1.762,0-2.335.573-2.335,2.335v32.731c0,1.762.573,2.335,2.291,2.335h63.745c1.718,0,2.291-.573,2.291-2.291v-32.819c0-1.674-.573-2.291-2.247-2.291h-10.661a1.8,1.8,0,0,1-1.41-.573c-.529-.573-1.1-1.057-1.674-1.586a7.659,7.659,0,0,0-.617-.529c.132,0,.264-.044.353-.044h17.181c1.454,0,1.982.529,1.982,1.982v40.309a1.815,1.815,0,0,1-.044.484v.176h-74.009V3117.7c0-1.674.441-2.159,2.159-2.159h17.313A7.275,7.275,0,0,1,3390.748,3116.115Zm18.15-23.833a9.773,9.773,0,0,1,6.873,2.819,10.091,10.091,0,0,1,2.951,7.18,9.927,9.927,0,0,1-9.868,9.912h0a9.806,9.806,0,0,1-9.824-9.956,9.937,9.937,0,0,1,9.824-9.912C3408.81,3092.282,3408.854,3092.282,3408.9,3092.282Zm-35.374,75.551c-3.392,0-6.035-2.071-7.093-5.595,0-.088-.044-.132-.044-.265v-.088H3398.9v.264c0,.265.044.485.044.705a4.016,4.016,0,0,0,4.009,3.833c3.877.044,7.842.044,11.762,0a4.047,4.047,0,0,0,4.009-3.833c0-.22.044-.44.044-.661v-.265h32.555a7.072,7.072,0,0,1-1.542,3.3,6.677,6.677,0,0,1-5.551,2.6h-45.375C3390.616,3167.789,3382.026,3167.789,3373.524,3167.833Zm41.85-4.8c-.176.22-.485.308-1.057.308h-10.661a1.851,1.851,0,0,1-1.1-.22c-.176-.176-.22-.529-.132-1.189h13.04C3415.55,3162.458,3415.55,3162.855,3415.374,3163.031Z" transform="translate(-3362.44 -3071.842)"/>
            <path id="Path_547" data-name="Path 547" class="cls-6" d="M3529.989,3055.651a5.181,5.181,0,0,0-5.551-5.551h-19.559c-1.365,0-2.819,0-4.229.044a5.057,5.057,0,0,0-4.934,4.846c-.088,4.185-.088,8.018,0,11.85a5.045,5.045,0,0,0,5.242,5.022h2.6v5.154a1.69,1.69,0,0,0,1.189,1.762,2.266,2.266,0,0,0,.484.088,1.977,1.977,0,0,0,1.366-.7c.529-.529,1.057-1.013,1.586-1.542,1.41-1.366,2.864-2.819,4.317-4.185a2.03,2.03,0,0,1,1.189-.485c2.687-.044,5.374-.044,8.018-.044h2.819a5.065,5.065,0,0,0,5.418-5.418C3529.989,3063.007,3529.989,3059.4,3529.989,3055.651Zm-23.083,14.846a1.752,1.752,0,0,0-1.982-1.982h-3.877a1.815,1.815,0,0,1-2.027-2.027v-11.1a1.712,1.712,0,0,1,1.895-1.938h23.744a1.743,1.743,0,0,1,1.938,1.938v11.189a1.739,1.739,0,0,1-1.982,1.938h-2.687c-2.864,0-5.815,0-8.766-.044a3.179,3.179,0,0,0-2.687,1.1c-.793.925-1.586,1.806-2.379,2.687-.308.353-.617.705-.969,1.057l-.309-.176v-.749a13.6,13.6,0,0,0,.088-1.894Z" transform="translate(-3436.967 -3050.1)"/>
            <g id="Group_134" data-name="Group 134" transform="translate(80.465 9.295)">
              <path id="Path_548" data-name="Path 548" class="cls-1" d="M3546.684,3074.5h0a1.686,1.686,0,0,0,1.674-1.586,1.654,1.654,0,0,0-1.63-1.718h0a1.655,1.655,0,0,0-1.63,1.63,1.6,1.6,0,0,0,1.586,1.674Z" transform="translate(-3545.096 -3071.2)"/>
            </g>
            <g id="Group_135" data-name="Group 135" transform="translate(74.206 9.339)">
              <path id="Path_549" data-name="Path 549" class="cls-1" d="M3532.567,3074.56h0a1.655,1.655,0,0,0,1.63-1.63,1.626,1.626,0,0,0-1.63-1.63,1.9,1.9,0,0,0-1.233.485,1.5,1.5,0,0,0-.44,1.189A1.751,1.751,0,0,0,3532.567,3074.56Z" transform="translate(-3530.888 -3071.3)"/>
            </g>
            <g id="Group_136" data-name="Group 136" transform="translate(68.088 9.383)">
              <path id="Path_550" data-name="Path 550" class="cls-1" d="M3520.26,3073.03a1.563,1.563,0,0,0-1.586-1.63,1.652,1.652,0,0,0-.044,3.3h0A1.794,1.794,0,0,0,3520.26,3073.03Z" transform="translate(-3517 -3071.399)"/>
            </g>
          </g>
        </g>
      </g>
    </g>
  </g>
</svg>
