<svg xmlns="http://www.w3.org/2000/svg" xmlns:xlink="http://www.w3.org/1999/xlink" viewBox="0 0 630.33 381.33"><defs><style>.cls-1{fill:url(#linear-gradient);}.cls-2{fill:url(#linear-gradient-2);}.cls-3{fill:#e0dafa;}</style><linearGradient id="linear-gradient" x1="-1199.6" y1="-377.97" x2="-1199.6" y2="-570.1" gradientTransform="translate(1292.66 -394.65) rotate(-45)" gradientUnits="userSpaceOnUse"><stop offset="0" stop-color="#21b6c5"/><stop offset="1" stop-color="#11ea9e"/></linearGradient><linearGradient id="linear-gradient-2" x1="1904.11" y1="-2940.32" x2="1904.11" y2="-3132.45" gradientTransform="translate(-281.65 -3248.95) rotate(135)" xlink:href="#linear-gradient"/></defs><g id="Layer_2" data-name="Layer 2"><g id="Layer_1-2" data-name="Layer 1"><circle class="cls-1" cx="124.83" cy="134" r="78"/><circle class="cls-2" cx="503.37" cy="228.87" r="78"/><path class="cls-3" d="M146.83,117.83a3.5,3.5,0,0,1-2.47-6l90.33-90.34a3.5,3.5,0,1,1,4.95,4.95l-90.33,90.34A3.51,3.51,0,0,1,146.83,117.83Z"/><path class="cls-3" d="M.5,299.17A.47.47,0,0,1,.15,299a.5.5,0,0,1,0-.71L129.48,169a.5.5,0,0,1,.71,0,.51.51,0,0,1,0,.71L.85,299A.47.47,0,0,1,.5,299.17Z"/><path class="cls-3" d="M495.83,211.83a.54.54,0,0,1-.35-.14.5.5,0,0,1,0-.71l134-134a.5.5,0,0,1,.71,0,.51.51,0,0,1,0,.71l-134,134A.54.54,0,0,1,495.83,211.83Z"/><path class="cls-3" d="M456.5,154a10,10,0,0,1-7.07-17.07l134-134a10,10,0,0,1,14.14,14.14l-134,134A10,10,0,0,1,456.5,154Z"/><path class="cls-3" d="M25.17,381.33a10,10,0,0,1-7.07-17.07l134-134a10,10,0,1,1,14.14,14.14l-134,134A9.93,9.93,0,0,1,25.17,381.33Z"/><path class="cls-3" d="M424.5,351.33a1,1,0,0,1-.71-.29,1,1,0,0,1,0-1.41l99.09-99.09a1,1,0,0,1,1.41,0,1,1,0,0,1,0,1.42L425.21,351A1,1,0,0,1,424.5,351.33Z"/><path class="cls-3" d="M393.5,269.83a3.5,3.5,0,0,1-2.48-6l69.67-69.67a3.5,3.5,0,0,1,4.95,4.95L396,268.81A3.51,3.51,0,0,1,393.5,269.83Z"/><path class="cls-3" d="M234.5,83.67a.47.47,0,0,1-.35-.15.5.5,0,0,1,0-.71l31.66-31.66a.5.5,0,0,1,.71,0,.48.48,0,0,1,0,.7L234.85,83.52A.47.47,0,0,1,234.5,83.67Z"/><path class="cls-3" d="M35.17,167.17a.51.51,0,0,1-.36-.15.51.51,0,0,1,0-.71L138.15,63a.48.48,0,0,1,.7,0,.5.5,0,0,1,0,.71L35.52,167A.5.5,0,0,1,35.17,167.17Z"/></g></g></svg>