<svg xmlns="http://www.w3.org/2000/svg" viewBox="0 0 103.8 238.65"><defs><style>.cls-1{isolation:isolate;}.cls-2{mix-blend-mode:multiply;}.cls-3{fill:#00b8ad;}.cls-4{fill:#0087eb;}</style></defs><g class="cls-1"><g id="Layer_2" data-name="Layer 2"><g id="Layer_1-2" data-name="Layer 1"><g class="cls-2"><path class="cls-3" d="M43.26,193.09h-.87l-.12-.87c-.39-2.87-.76-5.37-1.1-7.58-1.52-10.11-2.14-14.3.95-19.17s7.61-8.16,11.89-11.2c4.51-3.22,9.18-6.55,12.37-12.1,3.07-5.33,2.92-11.22-.4-15.37-4-5-11.4-6.36-19.88-3.73a63.78,63.78,0,0,0-10.77,4.47c-7.08,3.6-7.6,2.8-16.21-10.55-.9-1.38-1.88-2.91-3-4.58l-.48-.74.68-.57C34.1,96.22,55.85,91.62,74.53,98.8c13.67,5.26,22.87,15.85,24.63,28.35,2,14.2-5.93,28.82-22.3,41.15-10.64,8-10.17,13.48-9.86,17.1.15,1.77.29,3.44-.92,4.76C64,192.38,58.5,193.09,43.26,193.09Zm10.87-73.32c5.63,0,10.37,2,13.41,5.78,3.84,4.81,4.06,11.56.58,17.62s-8.26,9.38-13,12.73c-4.31,3.07-8.38,6-11.36,10.65-2.7,4.23-2.14,7.93-.66,17.8.3,2,.64,4.21,1,6.74,13.23,0,19-.68,20.46-2.28.59-.65.55-1.56.4-3.24-.34-4.06-.86-10.18,10.66-18.87,15.76-11.87,23.4-25.82,21.51-39.27-1.65-11.77-10.38-21.77-23.36-26.76-17.75-6.83-38.43-2.56-55.5,11.39l2.48,3.84c4.12,6.37,6.38,9.88,8.08,11,1.31.9,2.38.43,5.56-1.18a64.38,64.38,0,0,1,11.08-4.6A29.37,29.37,0,0,1,54.13,119.77Z"/></g><g class="cls-2"><path class="cls-3" d="M52.77,234.33c-7.81,0-16.21-4.94-16.21-15.78s8.4-15.74,16.21-15.74c8.11,0,16.31,5.41,16.31,15.74A15.1,15.1,0,0,1,64,230.39,17.12,17.12,0,0,1,52.77,234.33Zm0-29.52c-6.84,0-14.21,4.3-14.21,13.74s7.37,13.78,14.21,13.78S67.08,228,67.08,218.55,59.66,204.81,52.77,204.81Z"/></g><g class="cls-2"><path class="cls-3" d="M43.26,197.41H38.62l-.63-4.6c-.37-2.73-.73-5.12-1-7.24l-.05-.29c-1.59-10.58-2.39-15.9,1.58-22.13.29-.46.6-.91.91-1.35L41,163c-.29.41-.58.83-.85,1.27-3.57,5.6-2.81,10.66-1.29,20.75l0,.29c.32,2.13.68,4.53,1.06,7.27l.39,2.87h2.89c16.41,0,21.9-.83,24.52-3.68a6.22,6.22,0,0,0,1.62-4l2,.11a8.13,8.13,0,0,1-2.13,5.29C66.1,196.52,60.76,197.41,43.26,197.41Z"/><path class="cls-3" d="M66.21,135.62l-2-.22a8.39,8.39,0,0,0,.06-1,7.74,7.74,0,0,0-1.05-4c-1.75-3-5.61-4.62-10.36-4.3l-.14-2c5.56-.38,10.09,1.58,12.23,5.29a9.81,9.81,0,0,1,1.32,5C66.28,134.8,66.25,135.21,66.21,135.62Z"/><path class="cls-3" d="M30.2,133.72c-5.43,0-8-3.92-14.71-14.38l-.06-.09c-.87-1.35-1.83-2.85-2.9-4.49l-2.57-4,3.61-3A70.78,70.78,0,0,1,41.3,93.12l.5,1.94a68.66,68.66,0,0,0-26.94,14.26l-2.26,1.89,1.61,2.46,2.9,4.5-.78.62.84-.54c6.5,10.08,8.69,13.47,13,13.47a10.45,10.45,0,0,0,4.58-1.31l.86,1.8A12.13,12.13,0,0,1,30.2,133.72Z"/><path class="cls-3" d="M92.42,159.62l-1.53-1.28c7.14-8.53,10.91-17.81,10.91-26.83a33,33,0,0,0-.76-7.06L103,124a35.06,35.06,0,0,1,.81,7.49C103.8,141,99.87,150.73,92.42,159.62Z"/></g><g class="cls-2"><path class="cls-3" d="M52.87,238.65h-.1c-10.2,0-20.53-6.9-20.53-20.1a21.84,21.84,0,0,1,1.06-6.85l1.9.63a19.63,19.63,0,0,0-1,6.22c0,11.88,9.32,18.1,18.53,18.1ZM71.26,228l-1.78-.91a18.7,18.7,0,0,0,1.92-8.52,17.75,17.75,0,0,0-3.25-10.67l1.62-1.18a19.76,19.76,0,0,1,3.63,11.85A20.63,20.63,0,0,1,71.26,228Z"/></g><g class="cls-2"><path class="cls-4" d="M21.25,58.68h-.87l-.12-.86c-.21-1.58-.42-3-.6-4.16-.83-5.51-1.21-8,.59-10.85s4.26-4.58,6.65-6.28c2.55-1.82,5-3.54,6.67-6.51,1.59-2.76,1.52-5.8-.19-7.94-2.06-2.57-6-3.28-10.44-1.9a35.64,35.64,0,0,0-5.84,2.43c-4.26,2.17-4.75,1.4-9.5-5.95Q6.88,15.52,6,14.14l-.49-.74.68-.57C16.06,4.55,28.18,2,38.6,6c7.66,2.94,12.83,8.9,13.81,15.93,1.12,8-3.29,16.16-12.42,23-5.65,4.26-5.42,7-5.25,9a3.55,3.55,0,0,1-.62,3C32.89,58.27,29.88,58.68,21.25,58.68Zm6-41.19A9.56,9.56,0,0,1,35,20.83c2.23,2.79,2.36,6.7.35,10.19s-4.63,5.28-7.24,7.14c-2.34,1.66-4.54,3.23-6.13,5.73-1.39,2.18-1.09,4.17-.29,9.47.15,1,.31,2.09.48,3.32,4.86,0,9.68-.19,10.53-1.11.19-.21.17-.66.1-1.43-.18-2.19-.5-5.84,6-10.77C47.31,37,51.45,29.43,50.43,22.21c-.88-6.3-5.57-11.66-12.55-14.35C28.39,4.21,17.33,6.44,8.14,13.8l1.15,1.77c2.22,3.45,3.45,5.35,4.31,5.94.46.32.78.24,2.59-.68a36.73,36.73,0,0,1,6.16-2.56A16.8,16.8,0,0,1,27.23,17.49Z"/></g><g class="cls-2"><path class="cls-4" d="M21.25,62.84h-4.5l-.61-4.46c-.21-1.54-.41-2.88-.58-4.06-.91-6-1.45-9.61,1.18-13.74C19,37.07,21.9,35,24.48,33.14c1-.67,1.86-1.31,2.67-2l1.27,1.54c-.86.72-1.79,1.38-2.78,2.08-2.43,1.74-5.19,3.7-7.21,6.88-2.23,3.5-1.79,6.45-.9,12.33.18,1.23.38,2.58.6,4.13l.37,2.73h2.75c8.61,0,12.52-.34,14.46-2.45a5.63,5.63,0,0,0,1.18-4.61c-.17-2,0-3.81,4.39-7.09.55-.41,1.07-.82,1.58-1.23L44.12,47c-.52.43-1.07.86-1.63,1.28-3.81,2.87-3.71,4.06-3.61,5.32a7.55,7.55,0,0,1-1.7,6.13C34.77,62.37,30.91,62.84,21.25,62.84Z"/><path class="cls-4" d="M32.34,27.48l-1.92-.57a3.09,3.09,0,0,0,.14-.93,2.1,2.1,0,0,0-.27-1.07l1.63-1.17a1.74,1.74,0,0,1,.11.18A4.1,4.1,0,0,1,32.56,26,5.29,5.29,0,0,1,32.34,27.48Z"/><path class="cls-4" d="M14.07,27.84c-4.2,0-6-2.8-10-8.93L4,18.73,2.49,16.41,0,12.58,3.5,9.64C11,3.33,19.66,0,28.47,0A35.31,35.31,0,0,1,33.3.34l-.29,2A32.67,32.67,0,0,0,28.47,2C20.14,2,12,5.17,4.79,11.18L2.64,13l1.53,2.35,1.51,2.33.11.18c4,6.22,5.31,8,8.28,8a8.79,8.79,0,0,0,4-1.31,32.61,32.61,0,0,1,5.5-2.29,10.75,10.75,0,0,1,5.21-.45l-.39,2a9,9,0,0,0-4.23.4A30.7,30.7,0,0,0,19,26.32,10.63,10.63,0,0,1,14.07,27.84Z"/><path class="cls-4" d="M54.13,35.05l-1.79-.9a21.57,21.57,0,0,0,2.42-9.73A19.4,19.4,0,0,0,54.25,20l2-.46a21.81,21.81,0,0,1,.56,4.88A23.58,23.58,0,0,1,54.13,35.05Z"/></g><g class="cls-2"><path class="cls-4" d="M26.48,92C19.76,92,13,87.4,13,78.68s6.8-13.25,13.52-13.25,13.57,4.64,13.57,13.25A12.74,12.74,0,0,1,35,89.15l-1.2-1.59a10.65,10.65,0,0,0,4.27-8.88c0-7.31-6-11.25-11.57-11.25S15,71.29,15,78.68,20.76,90,26.48,90Z"/></g><g class="cls-2"><path class="cls-4" d="M26.48,87.81c-4.65,0-9.36-3.14-9.36-9.13s4.71-9.1,9.36-9.1,9.41,3.13,9.41,9.1S31.16,87.81,26.48,87.81Zm0-16.23c-3.55,0-7.36,2.23-7.36,7.1s3.81,7.13,7.36,7.13,7.41-2.23,7.41-7.13a6.76,6.76,0,0,0-2.28-5.31A7.88,7.88,0,0,0,26.48,71.58Z"/></g></g></g></g></svg>