<svg xmlns="http://www.w3.org/2000/svg" xmlns:xlink="http://www.w3.org/1999/xlink" viewBox="0 0 591.13 311.31"><defs><style>.cls-1{fill:#eef8fb;opacity:0;}.cls-2{isolation:isolate;}.cls-3{opacity:0.3;}.cls-4{clip-path:url(#clip-path);}.cls-10,.cls-11,.cls-12,.cls-13,.cls-14,.cls-15,.cls-16,.cls-17,.cls-18,.cls-19,.cls-20,.cls-21,.cls-22,.cls-23,.cls-24,.cls-25,.cls-26,.cls-27,.cls-28,.cls-5,.cls-6,.cls-7,.cls-72,.cls-73,.cls-74,.cls-75,.cls-76,.cls-77,.cls-78,.cls-79,.cls-8,.cls-9{mix-blend-mode:multiply;}.cls-5{fill:url(#linear-gradient);}.cls-6{fill:url(#linear-gradient-2);}.cls-7{fill:url(#linear-gradient-3);}.cls-8{fill:url(#linear-gradient-4);}.cls-9{fill:url(#linear-gradient-5);}.cls-10{fill:url(#linear-gradient-6);}.cls-11{fill:url(#linear-gradient-7);}.cls-12{fill:url(#linear-gradient-8);}.cls-13{fill:url(#linear-gradient-9);}.cls-14{fill:url(#linear-gradient-10);}.cls-15{fill:url(#linear-gradient-11);}.cls-16{fill:url(#linear-gradient-12);}.cls-17{fill:url(#linear-gradient-13);}.cls-18{fill:url(#linear-gradient-14);}.cls-19{fill:url(#linear-gradient-15);}.cls-20{fill:url(#linear-gradient-16);}.cls-21{fill:url(#linear-gradient-17);}.cls-22{fill:url(#linear-gradient-18);}.cls-23{fill:url(#linear-gradient-19);}.cls-24{fill:url(#linear-gradient-20);}.cls-25{fill:url(#linear-gradient-21);}.cls-26{fill:url(#linear-gradient-22);}.cls-27{fill:url(#linear-gradient-23);}.cls-29{fill:url(#linear-gradient-24);}.cls-30{fill:url(#linear-gradient-25);}.cls-31{fill:url(#linear-gradient-26);}.cls-32{fill:url(#linear-gradient-27);}.cls-33{fill:url(#linear-gradient-28);}.cls-34{fill:url(#linear-gradient-29);}.cls-35{fill:url(#linear-gradient-30);}.cls-36{fill:url(#linear-gradient-31);}.cls-37{fill:url(#linear-gradient-32);}.cls-38{fill:url(#linear-gradient-33);}.cls-39{fill:url(#linear-gradient-34);}.cls-40{fill:url(#linear-gradient-35);}.cls-41{fill:url(#linear-gradient-36);}.cls-42{fill:url(#linear-gradient-37);}.cls-43{fill:url(#linear-gradient-38);}.cls-44{fill:url(#linear-gradient-39);}.cls-45{fill:url(#linear-gradient-40);}.cls-46{fill:url(#linear-gradient-41);}.cls-47{fill:url(#linear-gradient-42);}.cls-48{fill:url(#linear-gradient-43);}.cls-49{fill:url(#linear-gradient-44);}.cls-50{fill:url(#linear-gradient-45);}.cls-51{fill:url(#linear-gradient-46);}.cls-52{fill:url(#linear-gradient-47);}.cls-53{fill:url(#linear-gradient-48);}.cls-54{fill:url(#linear-gradient-49);}.cls-55{fill:url(#linear-gradient-50);}.cls-56{fill:url(#linear-gradient-51);}.cls-57{fill:url(#linear-gradient-52);}.cls-58{fill:url(#linear-gradient-53);}.cls-59{fill:url(#linear-gradient-54);}.cls-60{fill:url(#linear-gradient-55);}.cls-61{fill:url(#linear-gradient-56);}.cls-62{fill:url(#linear-gradient-57);}.cls-63{fill:url(#linear-gradient-58);}.cls-64{fill:url(#linear-gradient-59);}.cls-65{fill:url(#linear-gradient-60);}.cls-66{fill:url(#linear-gradient-61);}.cls-67{fill:url(#linear-gradient-62);}.cls-68{fill:url(#linear-gradient-63);}.cls-69{fill:url(#linear-gradient-64);}.cls-70{fill:url(#linear-gradient-65);}.cls-71{fill:url(#linear-gradient-66);}.cls-72{fill:url(#linear-gradient-67);}.cls-73{fill:url(#linear-gradient-68);}.cls-74{fill:url(#linear-gradient-69);}.cls-75{fill:url(#linear-gradient-70);}.cls-76{fill:url(#linear-gradient-71);}.cls-77{fill:url(#linear-gradient-72);}.cls-78{fill:url(#linear-gradient-73);}.cls-79{fill:url(#linear-gradient-74);}.cls-80{fill:url(#linear-gradient-75);}.cls-81{fill:url(#linear-gradient-76);}.cls-82{fill:url(#linear-gradient-77);}.cls-83{fill:url(#linear-gradient-78);}.cls-84{fill:url(#linear-gradient-79);}.cls-85{fill:url(#linear-gradient-80);}.cls-86{fill:url(#linear-gradient-81);}.cls-87{fill:url(#linear-gradient-82);}.cls-88{fill:url(#linear-gradient-83);}.cls-89{fill:url(#linear-gradient-84);}.cls-90{fill:url(#linear-gradient-85);}.cls-91{fill:url(#linear-gradient-86);}.cls-92{fill:url(#linear-gradient-87);}.cls-93{fill:url(#linear-gradient-88);}.cls-94{fill:url(#linear-gradient-89);}.cls-95{fill:url(#linear-gradient-90);}.cls-96{fill:url(#linear-gradient-91);}.cls-97{fill:url(#linear-gradient-92);}.cls-98{fill:url(#linear-gradient-93);}.cls-99{fill:url(#linear-gradient-94);}.cls-100{fill:url(#linear-gradient-95);}.cls-101{fill:url(#linear-gradient-96);}.cls-102{fill:url(#linear-gradient-97);}.cls-103{fill:url(#linear-gradient-98);}.cls-104{fill:url(#linear-gradient-99);}.cls-105{fill:url(#linear-gradient-100);}.cls-106{fill:url(#linear-gradient-101);}.cls-107{fill:url(#linear-gradient-102);}.cls-108{fill:url(#linear-gradient-103);}.cls-109{fill:url(#linear-gradient-104);}.cls-110{fill:url(#linear-gradient-105);}.cls-111{fill:url(#linear-gradient-106);}.cls-112{fill:url(#linear-gradient-107);}.cls-113{fill:url(#linear-gradient-108);}.cls-114{fill:url(#linear-gradient-109);}.cls-115{fill:url(#linear-gradient-110);}.cls-116{fill:url(#linear-gradient-111);}.cls-117{fill:url(#linear-gradient-112);}.cls-118{fill:url(#linear-gradient-113);}.cls-119{fill:url(#linear-gradient-114);}.cls-120{fill:url(#linear-gradient-115);}.cls-121{fill:url(#linear-gradient-116);}.cls-122{fill:url(#linear-gradient-117);}.cls-123{fill:url(#linear-gradient-118);}.cls-124{fill:url(#linear-gradient-119);}.cls-125{fill:url(#linear-gradient-120);}.cls-126{fill:url(#linear-gradient-121);}.cls-127{fill:url(#linear-gradient-122);}.cls-128{fill:url(#linear-gradient-123);}</style><clipPath id="clip-path" transform="translate(6.05 6)"><rect class="cls-1" width="540" height="288"/></clipPath><linearGradient id="linear-gradient" x1="-7.42" y1="279.44" x2="55.46" y2="141.28" gradientUnits="userSpaceOnUse"><stop offset="0" stop-color="#0096ff"/><stop offset="0.63" stop-color="#36c2ff"/><stop offset="1" stop-color="#50d7ff"/></linearGradient><linearGradient id="linear-gradient-2" x1="47.96" y1="304.64" x2="110.83" y2="166.48" xlink:href="#linear-gradient"/><linearGradient id="linear-gradient-3" x1="288.15" y1="413.95" x2="351.03" y2="275.79" xlink:href="#linear-gradient"/><linearGradient id="linear-gradient-4" x1="45.73" y1="303.62" x2="108.6" y2="165.47" xlink:href="#linear-gradient"/><linearGradient id="linear-gradient-5" x1="165.38" y1="358.08" x2="228.25" y2="219.92" xlink:href="#linear-gradient"/><linearGradient id="linear-gradient-6" x1="215.13" y1="380.72" x2="278" y2="242.56" xlink:href="#linear-gradient"/><linearGradient id="linear-gradient-7" x1="39.03" y1="300.58" x2="101.9" y2="162.42" xlink:href="#linear-gradient"/><linearGradient id="linear-gradient-8" x1="218.75" y1="382.36" x2="281.62" y2="244.2" xlink:href="#linear-gradient"/><linearGradient id="linear-gradient-9" x1="109.93" y1="332.84" x2="172.8" y2="194.68" xlink:href="#linear-gradient"/><linearGradient id="linear-gradient-10" x1="156.19" y1="353.89" x2="219.07" y2="215.74" xlink:href="#linear-gradient"/><linearGradient id="linear-gradient-11" x1="31.94" y1="297.35" x2="94.81" y2="159.19" xlink:href="#linear-gradient"/><linearGradient id="linear-gradient-12" x1="138.63" y1="345.9" x2="201.51" y2="207.75" xlink:href="#linear-gradient"/><linearGradient id="linear-gradient-13" x1="100.22" y1="328.42" x2="163.09" y2="190.26" xlink:href="#linear-gradient"/><linearGradient id="linear-gradient-14" x1="32.55" y1="297.63" x2="95.43" y2="159.47" xlink:href="#linear-gradient"/><linearGradient id="linear-gradient-15" x1="148.39" y1="350.34" x2="211.26" y2="212.19" xlink:href="#linear-gradient"/><linearGradient id="linear-gradient-16" x1="111.47" y1="333.54" x2="174.35" y2="195.39" xlink:href="#linear-gradient"/><linearGradient id="linear-gradient-17" x1="171.99" y1="361.09" x2="234.87" y2="222.93" xlink:href="#linear-gradient"/><linearGradient id="linear-gradient-18" x1="2.83" y1="284.1" x2="65.71" y2="145.94" xlink:href="#linear-gradient"/><linearGradient id="linear-gradient-19" x1="152.53" y1="352.23" x2="215.4" y2="214.07" xlink:href="#linear-gradient"/><linearGradient id="linear-gradient-20" x1="233.1" y1="388.89" x2="295.97" y2="250.74" xlink:href="#linear-gradient"/><linearGradient id="linear-gradient-21" x1="247.03" y1="395.23" x2="309.9" y2="257.08" xlink:href="#linear-gradient"/><linearGradient id="linear-gradient-22" x1="18.05" y1="291.03" x2="80.93" y2="152.87" xlink:href="#linear-gradient"/><linearGradient id="linear-gradient-23" x1="56.54" y1="308.54" x2="119.41" y2="170.39" xlink:href="#linear-gradient"/><linearGradient id="linear-gradient-24" x1="181.51" y1="362.17" x2="244.38" y2="224.01" xlink:href="#linear-gradient"/><linearGradient id="linear-gradient-25" x1="86.16" y1="318.78" x2="149.04" y2="180.62" xlink:href="#linear-gradient"/><linearGradient id="linear-gradient-26" x1="5.33" y1="281.99" x2="68.21" y2="143.84" xlink:href="#linear-gradient"/><linearGradient id="linear-gradient-27" x1="96.17" y1="323.33" x2="159.04" y2="185.17" xlink:href="#linear-gradient"/><linearGradient id="linear-gradient-28" x1="56.79" y1="305.41" x2="119.66" y2="167.25" xlink:href="#linear-gradient"/><linearGradient id="linear-gradient-29" x1="51.12" y1="302.83" x2="113.99" y2="164.67" xlink:href="#linear-gradient"/><linearGradient id="linear-gradient-30" x1="208.95" y1="374.66" x2="271.82" y2="236.5" xlink:href="#linear-gradient"/><linearGradient id="linear-gradient-31" x1="66.53" y1="309.84" x2="129.4" y2="171.69" xlink:href="#linear-gradient"/><linearGradient id="linear-gradient-32" x1="-3.39" y1="278.02" x2="59.48" y2="139.87" xlink:href="#linear-gradient"/><linearGradient id="linear-gradient-33" x1="163.7" y1="354.07" x2="226.58" y2="215.91" xlink:href="#linear-gradient"/><linearGradient id="linear-gradient-34" x1="16.06" y1="286.87" x2="78.93" y2="148.72" xlink:href="#linear-gradient"/><linearGradient id="linear-gradient-35" x1="300.99" y1="416.54" x2="363.86" y2="278.39" xlink:href="#linear-gradient"/><linearGradient id="linear-gradient-36" x1="49.96" y1="337.26" x2="112.83" y2="199.1" xlink:href="#linear-gradient"/><linearGradient id="linear-gradient-37" x1="114.51" y1="331.68" x2="177.38" y2="193.52" xlink:href="#linear-gradient"/><linearGradient id="linear-gradient-38" x1="99.45" y1="324.83" x2="162.33" y2="186.67" xlink:href="#linear-gradient"/><linearGradient id="linear-gradient-39" x1="157.03" y1="351.03" x2="219.91" y2="212.87" xlink:href="#linear-gradient"/><linearGradient id="linear-gradient-40" x1="261.84" y1="398.72" x2="324.71" y2="260.57" xlink:href="#linear-gradient"/><linearGradient id="linear-gradient-41" x1="100.57" y1="328.57" x2="163.44" y2="190.42" xlink:href="#linear-gradient"/><linearGradient id="linear-gradient-42" x1="69.78" y1="311.32" x2="132.65" y2="173.17" xlink:href="#linear-gradient"/><linearGradient id="linear-gradient-43" x1="39.28" y1="300.69" x2="102.15" y2="162.53" xlink:href="#linear-gradient"/><linearGradient id="linear-gradient-44" x1="284.56" y1="409.06" x2="347.43" y2="270.91" xlink:href="#linear-gradient"/><linearGradient id="linear-gradient-45" x1="192.93" y1="367.37" x2="255.81" y2="229.21" xlink:href="#linear-gradient"/><linearGradient id="linear-gradient-46" x1="148.87" y1="350.56" x2="211.75" y2="212.41" xlink:href="#linear-gradient"/><linearGradient id="linear-gradient-47" x1="258.48" y1="397.19" x2="321.35" y2="259.04" xlink:href="#linear-gradient"/><linearGradient id="linear-gradient-48" x1="195.67" y1="368.61" x2="258.54" y2="230.46" xlink:href="#linear-gradient"/><linearGradient id="linear-gradient-49" x1="264.36" y1="399.88" x2="327.24" y2="261.72" xlink:href="#linear-gradient"/><linearGradient id="linear-gradient-50" x1="22.09" y1="289.63" x2="84.97" y2="151.46" xlink:href="#linear-gradient"/><linearGradient id="linear-gradient-51" x1="16.41" y1="287.03" x2="79.28" y2="148.88" xlink:href="#linear-gradient"/><linearGradient id="linear-gradient-52" x1="140.81" y1="346.89" x2="203.69" y2="208.74" xlink:href="#linear-gradient"/><linearGradient id="linear-gradient-53" x1="62" y1="311.03" x2="124.88" y2="172.87" xlink:href="#linear-gradient"/><linearGradient id="linear-gradient-54" x1="122.51" y1="335.32" x2="185.39" y2="197.17" xlink:href="#linear-gradient"/><linearGradient id="linear-gradient-55" x1="2.18" y1="280.56" x2="65.06" y2="142.4" xlink:href="#linear-gradient"/><linearGradient id="linear-gradient-56" x1="-10.06" y1="274.99" x2="52.82" y2="136.83" xlink:href="#linear-gradient"/><linearGradient id="linear-gradient-57" x1="225.28" y1="382.09" x2="288.15" y2="243.93" xlink:href="#linear-gradient"/><linearGradient id="linear-gradient-58" x1="12.31" y1="285.17" x2="75.18" y2="147.01" xlink:href="#linear-gradient"/><linearGradient id="linear-gradient-59" x1="129.46" y1="341.73" x2="192.34" y2="203.57" xlink:href="#linear-gradient"/><linearGradient id="linear-gradient-60" x1="56.4" y1="305.24" x2="119.27" y2="167.07" xlink:href="#linear-gradient"/><linearGradient id="linear-gradient-61" x1="87.77" y1="322.75" x2="150.64" y2="184.6" xlink:href="#linear-gradient"/><linearGradient id="linear-gradient-62" x1="325.36" y1="430.88" x2="388.23" y2="292.72" xlink:href="#linear-gradient"/><linearGradient id="linear-gradient-63" x1="89.87" y1="323.71" x2="152.75" y2="185.56" xlink:href="#linear-gradient"/><linearGradient id="linear-gradient-64" x1="-29.73" y1="266.04" x2="33.15" y2="127.88" xlink:href="#linear-gradient"/><linearGradient id="linear-gradient-65" x1="186.03" y1="367.47" x2="248.9" y2="229.32" xlink:href="#linear-gradient"/><linearGradient id="linear-gradient-66" x1="249.97" y1="396.57" x2="312.84" y2="258.41" xlink:href="#linear-gradient"/><linearGradient id="linear-gradient-67" x1="482.04" y1="19.33" x2="407.09" y2="148.52" xlink:href="#linear-gradient"/><linearGradient id="linear-gradient-68" x1="474.1" y1="14.73" x2="399.15" y2="143.92" xlink:href="#linear-gradient"/><linearGradient id="linear-gradient-69" x1="575.22" y1="73.39" x2="500.27" y2="202.59" xlink:href="#linear-gradient"/><linearGradient id="linear-gradient-70" x1="236.61" y1="-123.05" x2="161.66" y2="6.14" xlink:href="#linear-gradient"/><linearGradient id="linear-gradient-71" x1="418.56" y1="-17.49" x2="343.61" y2="111.7" xlink:href="#linear-gradient"/><linearGradient id="linear-gradient-72" x1="358.59" y1="-52.29" x2="283.64" y2="76.91" xlink:href="#linear-gradient"/><linearGradient id="linear-gradient-73" x1="565.66" y1="67.85" x2="490.71" y2="197.04" xlink:href="#linear-gradient"/><linearGradient id="linear-gradient-74" x1="441.07" y1="-4.43" x2="366.12" y2="124.76" xlink:href="#linear-gradient"/><linearGradient id="linear-gradient-75" x1="540.28" y1="50.63" x2="465.33" y2="179.82" xlink:href="#linear-gradient"/><linearGradient id="linear-gradient-76" x1="274.26" y1="-103.7" x2="199.31" y2="25.49" xlink:href="#linear-gradient"/><linearGradient id="linear-gradient-77" x1="451.86" y1="-0.67" x2="376.91" y2="128.52" xlink:href="#linear-gradient"/><linearGradient id="linear-gradient-78" x1="381.25" y1="-41.63" x2="306.3" y2="87.56" xlink:href="#linear-gradient"/><linearGradient id="linear-gradient-79" x1="516.38" y1="36.77" x2="441.43" y2="165.96" xlink:href="#linear-gradient"/><linearGradient id="linear-gradient-80" x1="585.71" y1="76.99" x2="510.76" y2="206.18" xlink:href="#linear-gradient"/><linearGradient id="linear-gradient-81" x1="299.65" y1="-88.97" x2="224.7" y2="40.23" xlink:href="#linear-gradient"/><linearGradient id="linear-gradient-82" x1="317.63" y1="-78.54" x2="242.68" y2="50.65" xlink:href="#linear-gradient"/><linearGradient id="linear-gradient-83" x1="600.82" y1="85.76" x2="525.87" y2="214.95" xlink:href="#linear-gradient"/><linearGradient id="linear-gradient-84" x1="577.34" y1="72.14" x2="502.39" y2="201.33" xlink:href="#linear-gradient"/><linearGradient id="linear-gradient-85" x1="453.02" y1="0.01" x2="378.07" y2="129.2" xlink:href="#linear-gradient"/><linearGradient id="linear-gradient-86" x1="397.82" y1="-32.01" x2="322.87" y2="97.18" xlink:href="#linear-gradient"/><linearGradient id="linear-gradient-87" x1="414.32" y1="-22.44" x2="339.37" y2="106.75" xlink:href="#linear-gradient"/><linearGradient id="linear-gradient-88" x1="469.38" y1="9.5" x2="394.43" y2="138.69" xlink:href="#linear-gradient"/><linearGradient id="linear-gradient-89" x1="543.59" y1="52.55" x2="468.64" y2="181.75" xlink:href="#linear-gradient"/><linearGradient id="linear-gradient-90" x1="317.12" y1="-78.83" x2="242.17" y2="50.36" xlink:href="#linear-gradient"/><linearGradient id="linear-gradient-91" x1="432.02" y1="-12.18" x2="357.07" y2="117.02" xlink:href="#linear-gradient"/><linearGradient id="linear-gradient-92" x1="558.09" y1="63.46" x2="483.14" y2="192.65" xlink:href="#linear-gradient"/><linearGradient id="linear-gradient-93" x1="218.5" y1="-136.06" x2="143.54" y2="-6.86" xlink:href="#linear-gradient"/><linearGradient id="linear-gradient-94" x1="494.62" y1="24.14" x2="419.67" y2="153.34" xlink:href="#linear-gradient"/><linearGradient id="linear-gradient-95" x1="191.96" y1="-151.45" x2="117.01" y2="-22.26" xlink:href="#linear-gradient"/><linearGradient id="linear-gradient-96" x1="417.8" y1="-20.42" x2="342.85" y2="108.77" xlink:href="#linear-gradient"/><linearGradient id="linear-gradient-97" x1="477.15" y1="16.5" x2="402.2" y2="145.69" xlink:href="#linear-gradient"/><linearGradient id="linear-gradient-98" x1="259.43" y1="-109.81" x2="184.48" y2="19.38" xlink:href="#linear-gradient"/><linearGradient id="linear-gradient-99" x1="502.32" y1="28.62" x2="427.38" y2="157.8" xlink:href="#linear-gradient"/><linearGradient id="linear-gradient-100" x1="298.21" y1="-89.81" x2="223.25" y2="39.38" xlink:href="#linear-gradient"/><linearGradient id="linear-gradient-101" x1="485.65" y1="18.94" x2="410.7" y2="148.14" xlink:href="#linear-gradient"/><linearGradient id="linear-gradient-102" x1="434.47" y1="-8.26" x2="359.52" y2="120.93" xlink:href="#linear-gradient"/><linearGradient id="linear-gradient-103" x1="538.25" y1="49.46" x2="463.3" y2="178.65" xlink:href="#linear-gradient"/><linearGradient id="linear-gradient-104" x1="366.42" y1="-50.23" x2="291.47" y2="78.96" xlink:href="#linear-gradient"/><linearGradient id="linear-gradient-105" x1="490.42" y1="21.71" x2="415.47" y2="150.9" xlink:href="#linear-gradient"/><linearGradient id="linear-gradient-106" x1="561.11" y1="62.72" x2="486.16" y2="191.91" xlink:href="#linear-gradient"/><linearGradient id="linear-gradient-107" x1="208.07" y1="-142.1" x2="133.12" y2="-12.91" xlink:href="#linear-gradient"/><linearGradient id="linear-gradient-108" x1="580.51" y1="73.97" x2="505.56" y2="203.17" xlink:href="#linear-gradient"/><linearGradient id="linear-gradient-109" x1="353" y1="-58.01" x2="278.05" y2="71.17" xlink:href="#linear-gradient"/><linearGradient id="linear-gradient-110" x1="454.88" y1="1.09" x2="379.93" y2="130.28" xlink:href="#linear-gradient"/><linearGradient id="linear-gradient-111" x1="565.74" y1="65.41" x2="490.79" y2="194.59" xlink:href="#linear-gradient"/><linearGradient id="linear-gradient-112" x1="361.44" y1="-53.12" x2="286.48" y2="76.07" xlink:href="#linear-gradient"/><linearGradient id="linear-gradient-113" x1="595.07" y1="82.42" x2="520.12" y2="211.6" xlink:href="#linear-gradient"/><linearGradient id="linear-gradient-114" x1="520.42" y1="39.11" x2="445.47" y2="168.3" xlink:href="#linear-gradient"/><linearGradient id="linear-gradient-115" x1="453.58" y1="2.82" x2="378.63" y2="132.01" xlink:href="#linear-gradient"/><linearGradient id="linear-gradient-116" x1="572.25" y1="69.18" x2="497.3" y2="198.37" xlink:href="#linear-gradient"/><linearGradient id="linear-gradient-117" x1="517.92" y1="40.15" x2="442.97" y2="169.34" xlink:href="#linear-gradient"/><linearGradient id="linear-gradient-118" x1="572.31" y1="69.22" x2="497.36" y2="198.4" xlink:href="#linear-gradient"/><linearGradient id="linear-gradient-119" x1="542.66" y1="54.51" x2="467.71" y2="183.7" xlink:href="#linear-gradient"/><linearGradient id="linear-gradient-120" x1="552.17" y1="57.53" x2="477.22" y2="186.72" xlink:href="#linear-gradient"/><linearGradient id="linear-gradient-121" x1="545.26" y1="53.52" x2="470.3" y2="182.71" xlink:href="#linear-gradient"/><linearGradient id="linear-gradient-122" x1="372.71" y1="-44.09" x2="297.76" y2="85.1" xlink:href="#linear-gradient"/><linearGradient id="linear-gradient-123" x1="500.36" y1="29.96" x2="425.4" y2="159.16" xlink:href="#linear-gradient"/></defs><g class="cls-2"><g id="Layer_2" data-name="Layer 2"><g id="Layer_1-2" data-name="Layer 1"><g class="cls-3"><rect class="cls-1" x="6.05" y="6" width="540" height="288"/><g class="cls-4"><polygon class="cls-5" points="36.31 184.1 33.14 184.1 31.55 186.84 33.14 189.59 36.31 189.59 37.89 186.84 36.31 184.1"/><polygon class="cls-6" points="103.05 184.36 99.7 184.36 98.03 187.25 99.7 190.15 103.05 190.15 104.72 187.25 103.05 184.36"/><polygon class="cls-7" points="341.29 297.92 338.17 297.92 336.61 300.62 338.17 303.32 341.29 303.32 342.85 300.62 341.29 297.92"/><polygon class="cls-8" points="94.84 197.28 88.08 197.28 84.7 203.13 88.08 208.98 94.84 208.98 98.22 203.13 94.84 197.28"/><polygon class="cls-9" points="193.91 296.99 187.04 296.99 183.61 302.94 187.04 308.88 193.91 308.88 197.34 302.94 193.91 296.99"/><polygon class="cls-10" points="276.53 247.01 271.26 247.01 268.62 251.58 271.26 256.15 276.53 256.15 279.17 251.58 276.53 247.01"/><polygon class="cls-11" points="52.95 272.59 41.74 272.59 36.14 282.3 41.74 292 52.95 292 58.56 282.3 52.95 272.59"/><polygon class="cls-12" points="271 268.25 267.92 268.25 266.38 270.92 267.92 273.59 271 273.59 272.54 270.92 271 268.25"/><polygon class="cls-13" points="171.21 199 167.65 199 165.86 202.09 167.65 205.18 171.21 205.18 172.99 202.09 171.21 199"/><polygon class="cls-14" points="214.57 227.87 204.91 227.87 200.08 236.24 204.91 244.6 214.57 244.6 219.4 236.24 214.57 227.87"/><polygon class="cls-15" points="56.83 243.71 52.34 243.71 50.1 247.59 52.34 251.48 56.83 251.48 59.07 247.59 56.83 243.71"/><polygon class="cls-16" points="185.15 246.29 173.99 246.29 168.41 255.95 173.99 265.61 185.15 265.61 190.72 255.95 185.15 246.29"/><polygon class="cls-17" points="145.68 230.16 138.68 230.16 135.19 236.21 138.68 242.27 145.68 242.27 149.18 236.21 145.68 230.16"/><polygon class="cls-18" points="84.46 184.42 80.8 184.42 78.97 187.59 80.8 190.76 84.46 190.76 86.28 187.59 84.46 184.42"/><polygon class="cls-19" points="169.62 304.38 166.65 304.38 165.16 306.96 166.65 309.53 169.62 309.53 171.11 306.96 169.62 304.38"/><polygon class="cls-20" points="145.87 258.92 141.74 258.92 139.68 262.5 141.74 266.07 145.87 266.07 147.93 262.5 145.87 258.92"/><polygon class="cls-21" points="206.66 285.69 203.29 285.69 201.61 288.61 203.29 291.52 206.66 291.52 208.35 288.61 206.66 285.69"/><polygon class="cls-22" points="16.42 255.64 10.41 255.64 7.4 260.85 10.41 266.06 16.42 266.06 19.43 260.85 16.42 255.64"/><polygon class="cls-23" points="192.09 268.17 179.69 268.17 173.49 278.91 179.69 289.65 192.09 289.65 198.29 278.91 192.09 268.17"/><polygon class="cls-24" points="271.91 304.3 268.92 304.3 267.43 306.89 268.92 309.48 271.91 309.48 273.41 306.89 271.91 304.3"/><polygon class="cls-25" points="307.86 262.71 302.97 262.71 300.53 266.94 302.97 271.18 307.86 271.18 310.3 266.94 307.86 262.71"/><polygon class="cls-26" points="49.79 223.18 41.62 223.18 37.54 230.26 41.62 237.33 49.79 237.33 53.88 230.26 49.79 223.18"/><polygon class="cls-27" points="71.16 277.74 65.47 277.74 62.63 282.67 65.47 287.59 71.16 287.59 74 282.67 71.16 277.74"/><g class="cls-28"><path class="cls-29" d="M233.36,249.44l2.57,4.46-2.57,4.46h-5.15l-2.57-4.46,2.57-4.46h5.15m.19-.34H228l-2.77,4.8,2.77,4.79h5.53l2.77-4.79-2.77-4.8Z" transform="translate(6.05 6)"/></g><g class="cls-28"><path class="cls-30" d="M121.18,243.34l3.24,5.6-3.24,5.6h-6.47l-3.23-5.6,3.23-5.6h6.47m.24-.42h-7l-3.48,6,3.48,6h7l3.48-6-3.48-6Z" transform="translate(6.05 6)"/></g><g class="cls-28"><path class="cls-31" d="M46.38,193,49,197.57l-2.63,4.56H41.12l-2.63-4.56L41.12,193h5.26m.2-.35H40.93l-2.83,4.9,2.83,4.9h5.65l2.83-4.9-2.83-4.9Z" transform="translate(6.05 6)"/></g><g class="cls-28"><path class="cls-32" d="M122.43,266.67l2.27,3.94-2.27,3.93h-4.54l-2.27-3.93,2.27-3.94h4.54m.17-.29h-4.88l-2.44,4.23,2.44,4.22h4.88l2.45-4.22-2.45-4.23Z" transform="translate(6.05 6)"/></g><g class="cls-28"><path class="cls-33" d="M113.68,181.13l1.55,2.68-1.55,2.69h-3.11L109,183.81l1.55-2.68h3.11m.11-.2h-3.33l-1.67,2.88,1.67,2.89h3.33l1.67-2.89-1.67-2.88Z" transform="translate(6.05 6)"/></g><g class="cls-28"><path class="cls-34" d="M73.83,253.57,75.26,256l-1.43,2.47H71L69.57,256,71,253.57h2.84m.11-.18H70.88L69.35,256l1.53,2.65h3.06L75.47,256l-1.53-2.64Z" transform="translate(6.05 6)"/></g><g class="cls-28"><path class="cls-35" d="M247.1,291.71,249,295l-1.89,3.28h-3.78l-1.9-3.28,1.9-3.27h3.78m.14-.25h-4.07l-2,3.52,2,3.53h4.07l2-3.53-2-3.52Z" transform="translate(6.05 6)"/></g><g class="cls-28"><path class="cls-36" d="M78.08,285.11l1.38,2.4-1.38,2.41H75.31l-1.39-2.41,1.39-2.4h2.77m.1-.18h-3l-1.49,2.58,1.49,2.59h3l1.49-2.59-1.49-2.58Z" transform="translate(6.05 6)"/></g><g class="cls-28"><path class="cls-37" d="M27.61,210.66l1.63,2.82-1.63,2.82H24.35l-1.63-2.82,1.63-2.82h3.26m.12-.22h-3.5l-1.75,3,1.75,3h3.5l1.75-3-1.75-3Z" transform="translate(6.05 6)"/></g><g class="cls-28"><path class="cls-38" d="M216.41,239.06l1.72,3-1.72,3H213l-1.72-3,1.72-3h3.45m.12-.22h-3.7L211,242l1.84,3.21h3.7l1.85-3.21-1.85-3.2Z" transform="translate(6.05 6)"/></g><g class="cls-28"><path class="cls-39" d="M12.76,294.89l1.69,2.92-1.69,2.92H9.4l-1.69-2.92,1.69-2.92h3.36m.13-.22H9.27l-1.81,3.14L9.27,301h3.62l1.81-3.14-1.81-3.14Z" transform="translate(6.05 6)"/></g><g class="cls-28"><path class="cls-40" d="M357.74,293.11l2.73,4.74-2.73,4.74h-5.47l-2.74-4.74,2.74-4.74h5.47m.2-.35h-5.88l-2.94,5.09,2.94,5.09h5.88l2.94-5.09-2.94-5.09Z" transform="translate(6.05 6)"/></g><g class="cls-28"><path class="cls-41" d="M105.74,218l7.06,12.24-7.06,12.23H91.61l-7.06-12.23L91.61,218h14.13m.53-.92H91.08l-7.59,13.16,7.59,13.15h15.19l7.59-13.15-7.59-13.16Z" transform="translate(6.05 6)"/></g><g class="cls-28"><path class="cls-42" d="M158.66,235.4l1.59,2.76-1.59,2.76h-3.19l-1.59-2.76,1.59-2.76h3.19m.12-.21h-3.43l-1.71,3,1.71,3h3.43l1.71-3-1.71-3Z" transform="translate(6.05 6)"/></g><g class="cls-28"><path class="cls-43" d="M114.78,292.77l3.49,6-3.49,6.05h-7l-3.49-6.05,3.49-6h7m.26-.46h-7.5l-3.76,6.5,3.76,6.5H115l3.75-6.5-3.75-6.5Z" transform="translate(6.05 6)"/></g><g class="cls-28"><path class="cls-44" d="M201.16,254.92l1.85,3.21-1.85,3.2h-3.7l-1.85-3.2,1.85-3.21h3.7m.14-.24h-4l-2,3.45,2,3.44h4l2-3.44-2-3.45Z" transform="translate(6.05 6)"/></g><g class="cls-28"><path class="cls-45" d="M319.86,271.94l1.52,2.63-1.52,2.63h-3l-1.52-2.63,1.52-2.63h3m.11-.2H316.7l-1.63,2.83,1.63,2.83H320l1.64-2.83L320,271.74Z" transform="translate(6.05 6)"/></g><g class="cls-28"><circle class="cls-46" cx="166.28" cy="184.18" r="0.33"/></g><g class="cls-28"><path class="cls-47" d="M130.92,179.06a1,1,0,1,1-.95-.95A1,1,0,0,1,130.92,179.06Z" transform="translate(6.05 6)"/></g><g class="cls-28"><circle class="cls-48" cx="39.08" cy="301.11" r="1.26"/></g><g class="cls-28"><path class="cls-49" d="M346.05,274.75a.37.37,0,0,1-.37.37.38.38,0,0,1-.37-.37.37.37,0,0,1,.37-.37A.36.36,0,0,1,346.05,274.75Z" transform="translate(6.05 6)"/></g><g class="cls-28"><path class="cls-50" d="M250.87,244.8a2.16,2.16,0,1,1-2.16-2.16A2.16,2.16,0,0,1,250.87,244.8Z" transform="translate(6.05 6)"/></g><g class="cls-28"><circle class="cls-51" cx="196.48" cy="245.95" r="0.53"/></g><g class="cls-28"><path class="cls-52" d="M308.51,287.94a.31.31,0,1,1-.31-.31A.31.31,0,0,1,308.51,287.94Z" transform="translate(6.05 6)"/></g><g class="cls-28"><path class="cls-53" d="M227,301.07a.55.55,0,0,1-1.1,0,.55.55,0,1,1,1.1,0Z" transform="translate(6.05 6)"/></g><g class="cls-28"><path class="cls-54" d="M309.83,301.75a.81.81,0,1,1-.81-.81A.81.81,0,0,1,309.83,301.75Z" transform="translate(6.05 6)"/></g><g class="cls-28"><path class="cls-55" d="M57.1,213.36a.29.29,0,0,1-.58,0,.29.29,0,1,1,.58,0Z" transform="translate(6.05 6)"/></g><g class="cls-28"><path class="cls-56" d="M31.77,257.07A1.73,1.73,0,1,1,30,255.34,1.72,1.72,0,0,1,31.77,257.07Z" transform="translate(6.05 6)"/></g><g class="cls-28"><circle class="cls-57" cx="194.54" cy="228.84" r="0.76"/></g><g class="cls-28"><circle class="cls-58" cx="65.04" cy="304.34" r="2.26"/></g><g class="cls-28"><path class="cls-59" d="M139.5,299a.44.44,0,1,1-.44-.45A.44.44,0,0,1,139.5,299Z" transform="translate(6.05 6)"/></g><g class="cls-28"><path class="cls-60" d="M-4.63,297.07a.71.71,0,0,1-.71.71.71.71,0,0,1-.71-.71.7.7,0,0,1,.71-.7A.7.7,0,0,1-4.63,297.07Z" transform="translate(6.05 6)"/></g><g class="cls-28"><path class="cls-61" d="M-4.94,264.36a.29.29,0,0,1-.28.28.28.28,0,0,1-.28-.28.27.27,0,0,1,.28-.28A.28.28,0,0,1-4.94,264.36Z" transform="translate(6.05 6)"/></g><g class="cls-28"><path class="cls-62" d="M290.06,242.33a1.18,1.18,0,1,1-1.18-1.19A1.18,1.18,0,0,1,290.06,242.33Z" transform="translate(6.05 6)"/></g><g class="cls-28"><path class="cls-63" d="M59.1,185a1.22,1.22,0,1,1-1.22-1.22A1.23,1.23,0,0,1,59.1,185Z" transform="translate(6.05 6)"/></g><g class="cls-28"><circle class="cls-64" cx="163.88" cy="266.1" r="0.31"/></g><g class="cls-28"><path class="cls-65" d="M97.59,215.54a.38.38,0,0,1-.75,0,.38.38,0,0,1,.75,0Z" transform="translate(6.05 6)"/></g><g class="cls-28"><circle class="cls-66" cx="95.52" cy="305.72" r="1.46"/></g><g class="cls-28"><circle class="cls-67" cx="382.21" cy="305.94" r="0.28"/></g><g class="cls-28"><circle class="cls-68" cx="148.93" cy="193.96" r="1.74"/></g><g class="cls-28"><path class="cls-69" d="M.37,204.07A1.89,1.89,0,0,1-1.52,206a1.9,1.9,0,0,1-1.9-1.89,1.9,1.9,0,0,1,1.9-1.9A1.9,1.9,0,0,1,.37,204.07Z" transform="translate(6.05 6)"/></g><g class="cls-28"><circle class="cls-70" cx="215.56" cy="302.57" r="0.41"/></g><g class="cls-28"><circle class="cls-71" cx="294.06" cy="299.69" r="0.29"/></g><polygon class="cls-72" points="450.07 74.39 441.64 74.39 437.43 81.69 441.64 88.99 450.07 88.99 454.29 81.69 450.07 74.39"/><polygon class="cls-73" points="471.88 18.54 465.18 18.54 461.83 24.34 465.18 30.13 471.88 30.13 475.22 24.34 471.88 18.54"/><polygon class="cls-74" points="575.96 72.11 572.38 72.11 570.6 75.2 572.38 78.3 575.96 78.3 577.74 75.2 575.96 72.11"/><polygon class="cls-75" points="153.77 19.72 149.52 19.72 147.4 23.41 149.52 27.09 153.77 27.09 155.9 23.41 153.77 19.72"/><polygon class="cls-76" points="395.92 21.52 391.75 21.52 389.67 25.13 391.75 28.73 395.92 28.73 398 25.13 395.92 21.52"/><polygon class="cls-77" points="306.67 37.13 289.35 37.13 280.69 52.13 289.35 67.13 306.67 67.13 315.33 52.13 306.67 37.13"/><polygon class="cls-78" points="531.8 126.2 525.72 126.2 522.68 131.46 525.72 136.73 531.8 136.73 534.84 131.46 531.8 126.2"/><polygon class="cls-79" points="429.65 15.19 414.63 15.19 407.12 28.2 414.63 41.22 429.65 41.22 437.17 28.2 429.65 15.19"/><g class="cls-28"><path class="cls-80" d="M513.67,96.4l11,19-11,19H491.73l-11-19,11-19h21.94M514.5,95H490.91l-11.8,20.42,11.8,20.43H514.5l11.79-20.43L514.5,95Z" transform="translate(6.05 6)"/></g><g class="cls-28"><path class="cls-81" d="M205.81,14.27l1.67,2.91-1.67,2.9h-3.35l-1.68-2.9,1.68-2.91h3.35m.12-.21h-3.6l-1.8,3.12,1.8,3.12h3.6l1.81-3.12-1.81-3.12Z" transform="translate(6.05 6)"/></g><g class="cls-28"><path class="cls-82" d="M439,21.51,441,25.08,439,28.65h-4.12l-2.06-3.57,2.06-3.57H439m.15-.27H434.7l-2.21,3.84,2.21,3.84h4.43l2.22-3.84-2.22-3.84Z" transform="translate(6.05 6)"/></g><g class="cls-28"><path class="cls-83" d="M338.61,31.84l2.86,4.95-2.86,4.94H332.9l-2.85-4.94,2.85-4.95h5.71m.22-.37h-6.14l-3.07,5.32,3.07,5.31h6.14l3.06-5.31-3.06-5.32Z" transform="translate(6.05 6)"/></g><g class="cls-28"><path class="cls-84" d="M515.61,38.05l3.28,5.67-3.28,5.67h-6.54l-3.27-5.67,3.27-5.67h6.54m.25-.42h-7l-3.51,6.09,3.51,6.09h7l3.52-6.09-3.52-6.09Z" transform="translate(6.05 6)"/></g><g class="cls-28"><path class="cls-85" d="M582.35,82.77l2.38,4.13L582.35,91h-4.77l-2.39-4.13,2.39-4.13h4.77m.18-.3H577.4l-2.56,4.43,2.56,4.44h5.13l2.56-4.44-2.56-4.43Z" transform="translate(6.05 6)"/></g><g class="cls-28"><path class="cls-86" d="M236.51,19.85l2.63,4.56L236.51,29h-5.26l-2.63-4.55,2.63-4.56h5.26m.2-.34h-5.66l-2.82,4.9,2.82,4.89h5.66l2.83-4.89-2.83-4.9Z" transform="translate(6.05 6)"/></g><g class="cls-28"><path class="cls-87" d="M264.2,13.52l3.9,6.75L264.2,27h-7.8l-3.9-6.76,3.9-6.75h7.8m.29-.51H256.1l-4.19,7.26,4.19,7.27h8.39l4.2-7.27L264.49,13Z" transform="translate(6.05 6)"/></g><g class="cls-28"><path class="cls-88" d="M572.26,135l1.81,3.13-1.81,3.14h-3.62l-1.81-3.14,1.81-3.13h3.62m.14-.23h-3.89l-2,3.36,2,3.37h3.89l1.94-3.37-1.94-3.36Z" transform="translate(6.05 6)"/></g><g class="cls-28"><path class="cls-89" d="M565.7,92.2l1.68,2.91L565.7,98h-3.37l-1.68-2.92,1.68-2.91h3.37m.12-.22H562.2l-1.81,3.13,1.81,3.14h3.62l1.81-3.14L565.82,92Z" transform="translate(6.05 6)"/></g><g class="cls-28"><path class="cls-90" d="M402.16,87.61l6.72,11.64-6.72,11.63H388.73L382,99.25l6.72-11.64h13.43m.51-.87H388.23L381,99.25l7.23,12.5h14.44l7.22-12.5-7.22-12.51Z" transform="translate(6.05 6)"/></g><g class="cls-28"><path class="cls-91" d="M365,24.49l2.44,4.22L365,32.93h-4.88l-2.43-4.22,2.43-4.22H365m.18-.32H360l-2.62,4.54L360,33.25h5.24l2.62-4.54-2.62-4.54Z" transform="translate(6.05 6)"/></g><g class="cls-28"><path class="cls-92" d="M370,53.94,376.37,65,370,76.1h-12.8L350.78,65l6.4-11.08H370m.48-.84H356.7L349.82,65l6.88,11.91h13.76L377.33,65,370.46,53.1Z" transform="translate(6.05 6)"/></g><g class="cls-28"><path class="cls-93" d="M459.49,26.49l8.45,14.63-8.45,14.64h-16.9l-8.45-14.64,8.45-14.63h16.9m.63-1.1H442l-9.09,15.73L442,56.86h18.16l9.09-15.74-9.09-15.73Z" transform="translate(6.05 6)"/></g><g class="cls-28"><path class="cls-94" d="M563.26,18.63l2.41,4.19L563.26,27h-4.83L556,22.82l2.42-4.19h4.83m.18-.31h-5.19l-2.6,4.5,2.6,4.49h5.19L566,22.82l-2.59-4.5Z" transform="translate(6.05 6)"/></g><g class="cls-28"><path class="cls-95" d="M273.5-2.44a.7.7,0,0,1-.7.71.71.71,0,0,1-.71-.71.7.7,0,0,1,.71-.7A.7.7,0,0,1,273.5-2.44Z" transform="translate(6.05 6)"/></g><g class="cls-28"><path class="cls-96" d="M374.47,89.29A1.33,1.33,0,1,1,373.15,88,1.33,1.33,0,0,1,374.47,89.29Z" transform="translate(6.05 6)"/></g><g class="cls-28"><circle class="cls-97" cx="585.21" cy="16.72" r="1.85"/></g><g class="cls-28"><path class="cls-98" d="M142.24-3.94a.4.4,0,0,1-.39.4.4.4,0,0,1-.4-.4.4.4,0,0,1,.4-.39A.4.4,0,0,1,142.24-3.94Z" transform="translate(6.05 6)"/></g><g class="cls-28"><path class="cls-99" d="M430.26,139.78a2.72,2.72,0,1,1-2.72-2.72A2.71,2.71,0,0,1,430.26,139.78Z" transform="translate(6.05 6)"/></g><g class="cls-28"><path class="cls-100" d="M106.91-2.89a1.14,1.14,0,0,1-1.14,1.14,1.14,1.14,0,0,1-1.14-1.14A1.14,1.14,0,0,1,105.77-4,1.14,1.14,0,0,1,106.91-2.89Z" transform="translate(6.05 6)"/></g><g class="cls-28"><path class="cls-101" d="M405.49,1.44a.37.37,0,1,1-.37-.37A.37.37,0,0,1,405.49,1.44Z" transform="translate(6.05 6)"/></g><g class="cls-28"><circle class="cls-102" cx="483.02" cy="6.38" r="0.53"/></g><g class="cls-28"><circle class="cls-103" cx="194.56" cy="2.01" r="0.78"/></g><g class="cls-28"><path class="cls-104" d="M447.81,123.18a.35.35,0,1,1-.34-.35A.35.35,0,0,1,447.81,123.18Z" transform="translate(6.05 6)"/></g><g class="cls-28"><path class="cls-105" d="M223.43,40.46a.8.8,0,1,1-.8-.8A.8.8,0,0,1,223.43,40.46Z" transform="translate(6.05 6)"/></g><g class="cls-28"><path class="cls-106" d="M472.94,41.52a.39.39,0,1,1-.39-.39A.39.39,0,0,1,472.94,41.52Z" transform="translate(6.05 6)"/></g><g class="cls-28"><circle class="cls-107" cx="428.64" cy="1.79" r="1.57"/></g><g class="cls-28"><path class="cls-108" d="M534.45,57.85a1.07,1.07,0,1,1-1.07-1.06A1.07,1.07,0,0,1,534.45,57.85Z" transform="translate(6.05 6)"/></g><g class="cls-28"><path class="cls-109" d="M296.62,72.52a1.42,1.42,0,1,1-2.83,0,1.42,1.42,0,0,1,2.83,0Z" transform="translate(6.05 6)"/></g><g class="cls-28"><path class="cls-110" d="M447.72,96.17a.5.5,0,0,1-1,0,.5.5,0,1,1,1,0Z" transform="translate(6.05 6)"/></g><g class="cls-28"><path class="cls-111" d="M577.38,35.78a.65.65,0,0,1-1.29,0,.65.65,0,1,1,1.29,0Z" transform="translate(6.05 6)"/></g><g class="cls-28"><path class="cls-112" d="M123.23,7.71a2.07,2.07,0,1,1-2.07-2.07A2.06,2.06,0,0,1,123.23,7.71Z" transform="translate(6.05 6)"/></g><g class="cls-28"><path class="cls-113" d="M546.72,136.7a2.6,2.6,0,1,1-2.6-2.6A2.6,2.6,0,0,1,546.72,136.7Z" transform="translate(6.05 6)"/></g><g class="cls-28"><path class="cls-114" d="M316.55,5.77a.55.55,0,0,1-.55.56.56.56,0,0,1,0-1.12A.55.55,0,0,1,316.55,5.77Z" transform="translate(6.05 6)"/></g><g class="cls-28"><path class="cls-115" d="M426.14,53.74a1.8,1.8,0,1,1-1.8-1.8A1.8,1.8,0,0,1,426.14,53.74Z" transform="translate(6.05 6)"/></g><g class="cls-28"><path class="cls-116" d="M520.83,143.48a.39.39,0,1,1-.77,0,.39.39,0,1,1,.77,0Z" transform="translate(6.05 6)"/></g><g class="cls-28"><path class="cls-117" d="M335-3.94a2.05,2.05,0,0,1-2.06,2.05,2.05,2.05,0,0,1-2-2,2.05,2.05,0,0,1,2-2.06A2.06,2.06,0,0,1,335-3.94Z" transform="translate(6.05 6)"/></g><g class="cls-28"><path class="cls-118" d="M575.47,116.82a.36.36,0,1,1-.36-.36A.36.36,0,0,1,575.47,116.82Z" transform="translate(6.05 6)"/></g><g class="cls-28"><path class="cls-119" d="M506.08,65.46a.95.95,0,1,1-.95-.95A.94.94,0,0,1,506.08,65.46Z" transform="translate(6.05 6)"/></g><g class="cls-28"><circle class="cls-120" cx="407.87" cy="81.6" r="1.85"/></g><g class="cls-28"><path class="cls-121" d="M581.2,54.57a.48.48,0,1,1-1,0,.48.48,0,0,1,1,0Z" transform="translate(6.05 6)"/></g><g class="cls-28"><circle class="cls-122" cx="526.37" cy="25.59" r="0.42"/></g><g class="cls-28"><path class="cls-123" d="M547.62,112.61a.49.49,0,0,1-.49.48.49.49,0,0,1,0-1A.49.49,0,0,1,547.62,112.61Z" transform="translate(6.05 6)"/></g><g class="cls-28"><circle class="cls-124" cx="571.61" cy="4.61" r="0.97"/></g><g class="cls-28"><path class="cls-125" d="M556.49,51.61a.89.89,0,1,1-.89-.89A.89.89,0,0,1,556.49,51.61Z" transform="translate(6.05 6)"/></g><g class="cls-28"><path class="cls-126" d="M496.73,137.72a.33.33,0,1,1-.32-.33A.32.32,0,0,1,496.73,137.72Z" transform="translate(6.05 6)"/></g><g class="cls-28"><circle class="cls-127" cx="320.48" cy="45.94" r="1.64"/></g><g class="cls-28"><circle class="cls-128" cx="496.23" cy="37.08" r="0.4"/></g></g></g></g></g></g></svg>